<?xml version="1.0" encoding="UTF-8" standalone="no"?><!-- Generator: Gravit.io --><svg xmlns="http://www.w3.org/2000/svg" xmlns:xlink="http://www.w3.org/1999/xlink" style="isolation:isolate" viewBox="0 0 300 300" width="300pt" height="300pt"><defs><clipPath id="_clipPath_Qcy3LKQHKef37EdLk8AVqMCIEHvWBMNK"><rect width="300" height="300"/></clipPath></defs><g clip-path="url(#_clipPath_Qcy3LKQHKef37EdLk8AVqMCIEHvWBMNK)"><rect width="300" height="300" style="fill:rgb(0,0,0)" fill-opacity="0"/><path d=" M 299.696 136 L 299.696 104.215 L 299.696 104.215 C 299.696 93.904 295.594 84.005 288.298 76.718 C 281.012 69.423 271.112 65.32 260.801 65.32 L 222.081 65.32 L 222.081 65.32 L 222.081 65.32 L 222.081 65.32 C 221.952 55.579 218.032 46.259 211.136 39.362 C 204.14 32.366 194.624 28.423 184.725 28.423 L 114.971 28.423 L 114.971 28.423 L 114.971 28.423 C 105.072 28.423 95.556 32.366 88.56 39.362 C 81.664 46.259 77.735 55.579 77.624 65.32 L 38.895 65.32 C 28.583 65.32 18.684 69.423 11.398 76.718 C 4.102 84.005 0 93.904 0 104.215 L 0 136 L 0 136 L 0 143.269 L 0 159.032 L 0 159.032 L 0 181 L 0 232.682 C 0 242.993 4.102 252.893 11.398 260.179 C 18.684 267.475 28.583 271.577 38.895 271.577 L 260.801 271.577 C 271.112 271.577 281.012 267.475 288.298 260.179 C 295.594 252.893 299.696 242.993 299.696 232.682 L 299.696 181 L 299.696 159.032 L 299.696 159.032 L 299.696 159.032 L 299.696 159.032 L 299.696 143.269 L 299.696 136 Z  M 194.54 181.668 L 110.829 181.668 L 110.829 181.668 L 110.829 191.272 C 110.829 197.962 105.398 203.393 98.708 203.393 L 89.742 203.393 C 83.052 203.393 77.621 197.962 77.621 191.272 L 77.621 181.668 L 38.399 181.668 L 38.399 181.668 L 38.399 181.668 C 38.399 181.668 38.399 181.668 38.399 181.668 C 38.076 181.668 37.754 181.664 37.431 181.659 L 37.431 181.659 C 30.981 181.528 24.618 180.093 18.731 177.435 L 18.731 232.682 C 18.731 238.02 20.857 243.162 24.641 246.936 C 28.415 250.72 33.557 252.846 38.895 252.846 L 260.801 252.846 C 266.139 252.846 271.281 250.72 275.055 246.936 C 278.839 243.162 280.965 238.02 280.965 232.682 L 280.965 177.435 L 280.965 177.435 L 280.965 177.435 C 275.078 180.093 268.715 181.528 262.265 181.659 C 261.942 181.664 261.62 181.668 261.297 181.668 L 227.748 181.668 L 227.748 191.272 C 227.748 197.962 222.317 203.393 215.627 203.393 L 206.661 203.393 C 199.971 203.393 194.54 197.962 194.54 191.272 L 194.54 181.668 L 194.54 181.668 L 194.54 181.668 Z  M 227.748 162.937 L 261.297 162.937 C 261.297 162.937 261.297 162.937 261.297 162.937 C 261.624 162.937 261.949 162.932 262.274 162.921 C 267.134 162.672 271.746 160.636 275.205 157.177 C 278.895 153.487 280.965 148.486 280.965 143.269 L 280.965 104.215 L 280.965 104.215 C 280.965 98.877 278.839 93.735 275.055 89.961 C 271.281 86.177 266.139 84.051 260.801 84.051 L 38.895 84.051 C 33.557 84.051 28.415 86.177 24.641 89.961 C 20.857 93.735 18.731 98.877 18.731 104.215 L 18.731 143.269 C 18.731 148.486 20.801 153.487 24.491 157.177 C 27.95 160.636 32.562 162.672 37.422 162.921 L 37.422 162.921 C 37.747 162.932 38.072 162.937 38.399 162.937 C 38.399 162.937 38.399 162.937 38.399 162.937 L 77.621 162.937 L 77.621 162.937 L 77.621 155.574 C 77.621 148.885 83.052 143.454 89.742 143.454 L 98.708 143.454 C 105.398 143.454 110.829 148.885 110.829 155.574 L 110.829 162.937 L 194.54 162.937 L 194.54 155.574 C 194.54 148.885 199.971 143.454 206.661 143.454 L 215.627 143.454 C 222.317 143.454 227.748 148.885 227.748 155.574 L 227.748 162.937 L 227.748 162.937 L 227.748 162.937 Z  M 203.347 65.32 C 203.22 60.543 201.277 55.989 197.893 52.605 C 194.4 49.121 189.661 47.154 184.725 47.154 L 114.971 47.154 L 114.971 47.154 L 114.971 47.154 C 110.035 47.154 105.296 49.121 101.803 52.605 C 98.419 55.989 96.476 60.543 96.358 65.32 L 203.347 65.32 L 203.347 65.32 L 203.347 65.32 L 203.347 65.32 L 203.347 65.32 Z " fill-rule="evenodd" fill="rgb(0,0,0)"/></g></svg>