<?xml version="1.0" encoding="UTF-8" standalone="no"?><!-- Generator: Gravit.io --><svg xmlns="http://www.w3.org/2000/svg" xmlns:xlink="http://www.w3.org/1999/xlink" style="isolation:isolate" viewBox="0 0 300 300" width="300" height="300"><defs><clipPath id="_clipPath_Ccv3X3SnjplSvwj6O8UjpXWhPkKAj9U8"><rect width="300" height="300"/></clipPath></defs><g clip-path="url(#_clipPath_Ccv3X3SnjplSvwj6O8UjpXWhPkKAj9U8)"><rect width="300" height="300" style="fill:rgb(0,0,0)" fill-opacity="0"/><path d=" M 203.347 65.32 L 96.358 65.32 C 96.476 60.543 98.419 55.989 101.803 52.605 C 105.296 49.121 110.035 47.154 114.971 47.154 L 114.971 47.154 L 184.725 47.154 C 189.661 47.154 194.4 49.121 197.893 52.605 C 201.277 55.989 203.22 60.543 203.347 65.32 L 203.347 65.32 L 203.347 65.32 Z  M 184.54 181.668 L 120.83 181.668 L 120.83 181.668 L 120.83 191.27 C 120.83 197.14 118.5 202.77 114.35 206.91 C 110.2 211.06 104.57 213.39 98.71 213.39 L 89.74 213.39 C 83.88 213.39 78.25 211.06 74.1 206.91 C 69.95 202.77 67.62 197.14 67.62 191.27 L 67.62 181.668 L 34.696 181.668 C 22.803 181.668 11.396 176.895 2.985 168.423 C 1.932 167.36 0.936 166.25 0 165.097 L 0 165.097 L 0 232.682 C 0 242.993 4.102 252.893 11.398 260.179 C 18.684 267.475 28.583 271.577 38.895 271.577 L 260.801 271.577 C 271.112 271.577 281.012 267.475 288.298 260.179 C 295.594 252.893 299.696 242.993 299.696 232.682 L 299.696 165.097 C 298.76 166.25 297.763 167.36 296.71 168.423 C 288.309 176.895 276.892 181.668 265.009 181.668 L 237.75 181.668 L 237.75 191.27 C 237.75 197.14 235.42 202.77 231.27 206.91 C 227.12 211.06 221.49 213.39 215.63 213.39 L 206.66 213.39 C 200.8 213.39 195.17 211.06 191.02 206.91 C 186.87 202.77 184.54 197.14 184.54 191.27 L 184.54 181.668 L 184.54 181.668 L 184.54 181.668 L 184.54 181.668 Z  M 89.742 143.454 L 98.708 143.454 C 105.398 143.454 110.829 148.885 110.829 155.574 L 110.829 191.272 C 110.829 197.962 105.398 203.393 98.708 203.393 L 89.742 203.393 C 83.052 203.393 77.621 197.962 77.621 191.272 L 77.621 155.574 C 77.621 148.885 83.052 143.454 89.742 143.454 L 89.742 143.454 Z  M 222.081 65.32 L 260.801 65.32 C 271.112 65.32 281.012 69.423 288.298 76.718 C 294.718 83.13 298.665 91.564 299.52 100.523 L 299.52 100.523 L 299.52 136.441 C 299.52 136.441 299.52 136.441 299.52 136.441 C 299.52 145.674 295.883 154.532 289.404 161.045 C 282.936 167.579 274.154 171.247 265.009 171.247 C 265.009 171.247 265.009 171.247 265.009 171.247 L 237.75 171.247 L 237.75 171.247 L 237.75 155.57 C 237.75 149.71 235.42 144.08 231.27 139.93 C 227.12 135.79 221.49 133.45 215.63 133.45 L 206.66 133.45 L 206.66 133.45 C 200.8 133.45 195.17 135.79 191.02 139.93 C 186.87 144.08 184.54 149.71 184.54 155.57 L 184.54 171.247 L 120.83 171.247 L 120.83 155.57 C 120.83 149.71 118.5 144.08 114.35 139.93 C 110.2 135.79 104.57 133.45 98.71 133.45 L 89.74 133.45 L 89.74 133.45 C 83.88 133.45 78.25 135.79 74.1 139.93 C 69.95 144.08 67.62 149.71 67.62 155.57 L 67.62 171.247 L 67.62 171.247 L 34.696 171.247 C 34.696 171.247 34.696 171.247 34.696 171.247 C 25.541 171.247 16.759 167.579 10.29 161.045 C 3.822 154.532 0.185 145.674 0.185 136.441 C 0.185 136.441 0.185 136.441 0.185 136.441 L 0.185 100.426 C 1.06 91.504 5.001 83.107 11.398 76.718 C 18.684 69.423 28.583 65.32 38.895 65.32 L 77.624 65.32 C 77.735 55.579 81.664 46.259 88.56 39.362 C 95.556 32.366 105.072 28.423 114.971 28.423 L 114.971 28.423 L 184.725 28.423 C 194.624 28.423 204.14 32.366 211.136 39.362 C 218.032 46.259 221.952 55.579 222.081 65.32 L 222.081 65.32 L 222.081 65.32 Z  M 206.661 143.454 L 215.627 143.454 C 222.317 143.454 227.748 148.885 227.748 155.574 L 227.748 191.272 C 227.748 197.962 222.317 203.393 215.627 203.393 L 206.661 203.393 C 199.971 203.393 194.54 197.962 194.54 191.272 L 194.54 155.574 C 194.54 148.885 199.971 143.454 206.661 143.454 Z " fill-rule="evenodd" fill="rgb(0,0,0)"/></g></svg>