<?xml version="1.0" encoding="UTF-8" standalone="no"?><!-- Generator: Gravit.io --><svg xmlns="http://www.w3.org/2000/svg" xmlns:xlink="http://www.w3.org/1999/xlink" style="isolation:isolate" viewBox="0 0 300 300" width="300" height="300"><defs><clipPath id="_clipPath_GiqUnt19Bo7Gmu4TqvMDtpYcN7KQuknH"><rect width="300" height="300"/></clipPath></defs><g clip-path="url(#_clipPath_GiqUnt19Bo7Gmu4TqvMDtpYcN7KQuknH)"><rect width="300" height="300" style="fill:rgb(0,0,0)" fill-opacity="0"/><path d=" M 65.304 130.851 C 65.304 120.417 73.775 111.946 84.209 111.946 C 94.643 111.946 103.115 120.417 103.115 130.851 C 103.115 141.286 94.643 149.757 84.209 149.757 C 73.775 149.757 65.304 141.286 65.304 130.851 L 65.304 130.851 L 65.304 130.851 Z  M 131.095 130.851 C 131.095 120.417 139.566 111.946 150 111.946 C 160.434 111.946 168.905 120.417 168.905 130.851 C 168.905 141.286 160.434 149.757 150 149.757 C 139.566 149.757 131.095 141.286 131.095 130.851 L 131.095 130.851 Z  M 74.271 252.967 L 264.587 252.967 C 284.132 252.967 300 237.098 300 217.553 L 300 44.149 C 300 24.604 284.132 8.736 264.587 8.736 L 35.413 8.736 C 15.868 8.736 0 24.604 0 44.149 L 0 252.967 L 0 252.967 L 0 270.435 C 0 290.512 13.197 297.245 29.452 285.46 L 74.271 252.967 L 74.271 252.967 L 74.271 252.967 Z  M 196.885 130.851 C 196.885 120.417 205.357 111.946 215.791 111.946 C 226.225 111.946 234.696 120.417 234.696 130.851 C 234.696 141.286 226.225 149.757 215.791 149.757 C 205.357 149.757 196.885 141.286 196.885 130.851 Z " fill-rule="evenodd" fill="rgb(0,0,0)"/></g></svg>