<?xml version="1.0" encoding="UTF-8" standalone="no"?><!-- Generator: Gravit.io --><svg xmlns="http://www.w3.org/2000/svg" xmlns:xlink="http://www.w3.org/1999/xlink" style="isolation:isolate" viewBox="0 0 300 300" width="300pt" height="300pt"><defs><clipPath id="_clipPath_a4527H6AMjE0Q1CltrtnZia20ScFtuHe"><rect width="300" height="300"/></clipPath></defs><g clip-path="url(#_clipPath_a4527H6AMjE0Q1CltrtnZia20ScFtuHe)"><rect width="300" height="300" style="fill:rgb(0,0,0)" fill-opacity="0"/><path d=" M 199.275 251.716 C 199.275 251.726 199.275 251.726 199.275 251.726 L 199.284 251.716 L 199.284 251.716 L 199.275 251.716 Z  M 199.275 251.716 L 199.041 251.922 C 199.041 251.922 199.032 251.922 199.032 251.931 C 188.44 260.924 177.896 269.992 167.417 279.125 C 162.714 283.238 156.676 285.5 150.431 285.5 C 144.187 285.5 138.148 283.238 133.446 279.125 C 122.892 269.935 112.282 260.812 101.625 251.754 C 101.616 251.744 101.616 251.744 101.606 251.744 L 101.597 251.726 C 94.745 245.911 87.93 240.069 81.134 234.198 C 74.777 228.72 68.505 223.149 62.307 217.493 C 56.549 212.239 50.921 206.846 45.443 201.302 C 40.358 196.151 35.488 190.795 30.842 185.242 C 25.971 179.39 21.55 173.155 17.642 166.612 C 13.987 160.47 10.846 154.029 8.275 147.364 C 5.836 141.007 3.966 134.445 2.704 127.761 C 1.479 121.292 0.862 114.721 0.862 108.14 C 0.853 101.932 1.395 95.735 2.461 89.63 C 3.508 83.666 5.088 77.814 7.191 72.14 C 9.257 66.559 11.846 61.184 14.931 56.099 C 18.007 51.032 21.568 46.293 25.579 41.937 C 33.562 33.243 43.275 26.307 54.09 21.586 C 59.465 19.24 65.074 17.473 70.814 16.295 C 76.647 15.089 82.592 14.491 88.547 14.5 C 93.034 14.491 97.512 14.855 101.943 15.575 C 106.318 16.295 110.618 17.389 114.815 18.828 C 119.012 20.287 123.088 22.091 126.986 24.222 C 130.969 26.4 134.764 28.887 138.344 31.673 C 142.055 34.542 145.542 37.693 148.786 41.086 C 149.337 41.666 149.889 42.255 150.431 42.853 C 150.973 42.255 151.525 41.666 152.086 41.086 C 155.32 37.693 158.807 34.542 162.518 31.673 C 166.098 28.896 169.894 26.4 173.867 24.222 C 177.774 22.091 181.85 20.287 186.047 18.828 C 190.244 17.389 194.545 16.295 198.919 15.575 C 203.35 14.855 207.828 14.491 212.315 14.5 C 218.27 14.491 224.215 15.089 230.048 16.295 C 235.788 17.473 241.397 19.24 246.772 21.586 C 257.588 26.307 267.3 33.243 275.284 41.937 C 279.294 46.293 282.856 51.032 285.931 56.099 C 289.016 61.184 291.605 66.559 293.671 72.14 C 295.775 77.814 297.354 83.666 298.401 89.63 C 299.467 95.735 300.009 101.932 300 108.13 C 300 114.721 299.383 121.283 298.158 127.761 C 296.896 134.445 295.027 141.007 292.587 147.355 C 290.016 154.029 286.885 160.47 283.22 166.612 C 279.313 173.155 274.9 179.381 270.021 185.242 C 265.384 190.795 260.514 196.151 255.419 201.293 C 249.941 206.836 244.314 212.239 238.555 217.493 C 232.357 223.139 226.085 228.711 219.738 234.189 C 212.942 240.059 206.127 245.902 199.275 251.716 Z  M 113.731 237.507 L 113.712 237.498 C 113.712 237.488 113.712 237.488 113.703 237.488 C 106.897 231.702 100.111 225.888 93.352 220.045 C 87.126 214.679 80.975 209.22 74.908 203.677 C 69.384 198.647 63.99 193.468 58.736 188.149 C 54.015 183.382 49.5 178.418 45.2 173.267 C 40.956 168.163 37.105 162.732 33.702 157.03 C 30.58 151.804 27.916 146.317 25.728 140.643 C 23.69 135.342 22.129 129.874 21.073 124.293 C 20.073 118.965 19.559 113.543 19.559 108.121 C 19.549 102.998 19.998 97.894 20.877 92.855 C 21.727 88.004 23.008 83.246 24.719 78.637 C 26.373 74.169 28.458 69.859 30.926 65.784 C 33.347 61.783 36.17 58.034 39.339 54.594 C 45.565 47.817 53.137 42.404 61.559 38.721 C 65.747 36.898 70.103 35.524 74.572 34.608 C 79.171 33.664 83.854 33.187 88.556 33.196 C 92.025 33.187 95.493 33.467 98.914 34.028 C 102.242 34.58 105.523 35.402 108.711 36.505 C 111.917 37.618 115.03 38.992 118.012 40.619 C 121.116 42.329 124.088 44.274 126.883 46.442 C 129.865 48.751 132.661 51.275 135.259 53.996 C 141.41 60.436 146.533 67.793 150.431 75.805 C 154.329 67.793 159.452 60.436 165.603 53.996 C 168.202 51.275 170.997 48.751 173.979 46.442 C 176.774 44.274 179.737 42.329 182.85 40.619 C 185.832 38.992 188.945 37.618 192.151 36.505 C 195.339 35.402 198.62 34.58 201.948 34.028 C 205.37 33.467 208.838 33.187 212.306 33.196 C 217.008 33.187 221.691 33.664 226.291 34.608 C 230.759 35.524 235.115 36.898 239.294 38.721 C 247.726 42.404 255.298 47.817 261.523 54.594 C 264.692 58.034 267.515 61.783 269.937 65.784 C 272.404 69.869 274.489 74.169 276.144 78.637 C 277.854 83.246 279.135 88.004 279.986 92.855 C 280.864 97.894 281.313 102.998 281.304 108.121 C 281.304 113.543 280.79 118.965 279.789 124.293 C 278.733 129.874 277.181 135.342 275.134 140.643 C 272.947 146.317 270.282 151.804 267.16 157.03 C 263.758 162.732 259.915 168.163 255.662 173.267 C 251.362 178.418 246.847 183.382 242.126 188.149 C 236.873 193.468 231.479 198.638 225.954 203.677 C 219.887 209.211 213.736 214.67 207.52 220.036 C 200.761 225.878 193.974 231.693 187.169 237.479 C 187.16 237.479 187.16 237.479 187.16 237.488 L 187.15 237.488 L 186.926 237.685 C 176.26 246.734 165.659 255.857 155.115 265.046 C 153.825 266.178 152.151 266.804 150.431 266.804 C 148.702 266.804 147.038 266.178 145.738 265.037 C 135.128 255.792 124.462 246.621 113.731 237.507 Z " fill-rule="evenodd" fill="rgb(0,0,0)"/></g></svg>