<?xml version="1.0" encoding="UTF-8" standalone="no"?><!-- Generator: Gravit.io --><svg xmlns="http://www.w3.org/2000/svg" xmlns:xlink="http://www.w3.org/1999/xlink" style="isolation:isolate" viewBox="0 0 300 300" width="300pt" height="300pt"><defs><clipPath id="_clipPath_KVZOKxX9FY5vcOJ8HlWROQagMvfO8n6c"><rect width="300" height="300"/></clipPath></defs><g clip-path="url(#_clipPath_KVZOKxX9FY5vcOJ8HlWROQagMvfO8n6c)"><rect width="300" height="300" style="fill:rgb(0,0,0)" fill-opacity="0"/><path d=" M 199.275 251.716 C 199.275 251.726 199.275 251.726 199.275 251.726 L 199.284 251.716 L 199.284 251.716 L 199.275 251.716 Z  M 199.275 251.716 L 199.041 251.922 C 199.041 251.922 199.032 251.922 199.032 251.931 C 188.44 260.924 177.896 269.992 167.417 279.125 C 162.714 283.238 156.676 285.5 150.431 285.5 C 144.187 285.5 138.148 283.238 133.446 279.125 C 122.892 269.935 112.282 260.812 101.625 251.754 C 101.616 251.744 101.616 251.744 101.606 251.744 L 101.597 251.726 C 94.745 245.911 87.93 240.069 81.134 234.198 C 74.777 228.72 68.505 223.149 62.307 217.493 C 56.549 212.239 50.921 206.846 45.443 201.302 C 40.358 196.151 35.488 190.795 30.842 185.242 C 25.971 179.39 21.55 173.155 17.642 166.612 C 13.987 160.47 10.846 154.029 8.275 147.364 C 5.836 141.007 3.966 134.445 2.704 127.761 C 1.479 121.292 0.862 114.721 0.862 108.14 C 0.853 101.932 1.395 95.735 2.461 89.63 C 3.508 83.666 5.088 77.814 7.191 72.14 C 9.257 66.559 11.846 61.184 14.931 56.099 C 18.007 51.032 21.568 46.293 25.579 41.937 C 33.562 33.243 43.275 26.307 54.09 21.586 C 59.465 19.24 65.074 17.473 70.814 16.295 C 76.647 15.089 82.592 14.491 88.547 14.5 C 93.034 14.491 97.512 14.855 101.943 15.575 C 106.318 16.295 110.618 17.389 114.815 18.828 C 119.012 20.287 123.088 22.091 126.986 24.222 C 130.969 26.4 134.764 28.887 138.344 31.673 C 142.055 34.542 145.542 37.693 148.786 41.086 C 149.337 41.666 149.889 42.255 150.431 42.853 C 150.973 42.255 151.525 41.666 152.086 41.086 C 155.32 37.693 158.807 34.542 162.518 31.673 C 166.098 28.896 169.894 26.4 173.867 24.222 C 177.774 22.091 181.85 20.287 186.047 18.828 C 190.244 17.389 194.545 16.295 198.919 15.575 C 203.35 14.855 207.828 14.491 212.315 14.5 C 218.27 14.491 224.215 15.089 230.048 16.295 C 235.788 17.473 241.397 19.24 246.772 21.586 C 257.588 26.307 267.3 33.243 275.284 41.937 C 279.294 46.293 282.856 51.032 285.931 56.099 C 289.016 61.184 291.605 66.559 293.671 72.14 C 295.775 77.814 297.354 83.666 298.401 89.63 C 299.467 95.735 300.009 101.932 300 108.13 C 300 114.721 299.383 121.283 298.158 127.761 C 296.896 134.445 295.027 141.007 292.587 147.355 C 290.016 154.029 286.885 160.47 283.22 166.612 C 279.313 173.155 274.9 179.381 270.021 185.242 C 265.384 190.795 260.514 196.151 255.419 201.293 C 249.941 206.836 244.314 212.239 238.555 217.493 C 232.357 223.139 226.085 228.711 219.738 234.189 C 212.942 240.059 206.127 245.902 199.275 251.716 Z " fill-rule="evenodd" fill="rgb(0,0,0)"/></g></svg>