<?xml version="1.0" encoding="UTF-8" standalone="no"?><!-- Generator: Gravit.io --><svg xmlns="http://www.w3.org/2000/svg" xmlns:xlink="http://www.w3.org/1999/xlink" style="isolation:isolate" viewBox="0 0 300 300" width="300pt" height="300pt"><defs><clipPath id="_clipPath_YxTwcJInRbk9GXWXzzAPppDnEikEY3jc"><rect width="300" height="300"/></clipPath></defs><g clip-path="url(#_clipPath_YxTwcJInRbk9GXWXzzAPppDnEikEY3jc)"><rect width="300" height="300" style="fill:rgb(0,0,0)" fill-opacity="0"/><path d=" M 280.456 139.368 L 280.456 139.349 L 280.456 139.349 L 280.456 139.378 C 280.456 139.378 280.456 139.368 280.456 139.368 Z  M 87.518 226.163 L 87.518 226.163 L 87.518 226.163 L 87.518 226.163 C 87.518 226.163 87.518 226.163 87.518 226.163 C 87.518 217.808 89.189 209.541 92.443 201.84 C 95.58 194.424 100.134 187.681 105.831 181.984 C 111.528 176.287 118.27 171.743 125.687 168.596 C 133.378 165.352 141.645 163.671 150 163.681 C 158.355 163.671 166.622 165.352 174.313 168.596 C 181.73 171.743 188.472 176.287 194.169 181.984 C 199.866 187.681 204.42 194.424 207.557 201.84 C 210.811 209.541 212.482 217.808 212.482 226.163 L 212.482 267.254 L 266.775 267.254 L 266.775 267.254 C 270.401 267.254 273.879 265.818 276.45 263.248 C 279.01 260.687 280.456 257.209 280.456 253.573 L 280.456 253.573 L 280.456 139.368 C 280.446 138.176 280.358 136.984 280.182 135.811 C 279.977 134.443 279.684 133.095 279.313 131.766 C 278.492 128.814 277.358 125.951 275.951 123.225 C 274.554 120.489 272.893 117.899 270.967 115.505 C 270.107 114.43 269.179 113.414 268.192 112.456 C 267.332 111.616 266.423 110.853 265.456 110.15 L 162.919 36.606 C 161.111 35.336 159.098 34.378 156.977 33.782 C 154.544 33.088 152.023 32.736 149.482 32.746 C 146.961 32.736 144.45 33.078 142.016 33.782 C 139.896 34.378 137.893 35.326 136.094 36.586 L 34.544 109.222 C 33.586 109.915 32.668 110.678 31.818 111.508 C 30.831 112.476 29.902 113.492 29.042 114.567 C 27.117 116.951 25.446 119.531 24.049 122.267 C 22.642 124.994 21.508 127.857 20.687 130.808 C 20.316 132.137 20.023 133.485 19.818 134.844 C 19.642 136.016 19.554 137.209 19.544 138.401 L 19.544 253.573 L 19.544 253.573 C 19.544 257.209 20.99 260.687 23.55 263.248 C 26.121 265.818 29.599 267.254 33.225 267.254 L 33.225 267.254 L 87.518 267.254 L 87.518 226.163 Z  M 0 138.381 C 0 138.371 0 138.352 0 138.342 C 0 138.352 0 138.371 0 138.381 L 0 138.381 L 0 253.573 L 0 253.573 C 0 262.388 3.498 270.84 9.733 277.075 C 15.958 283.3 24.42 286.798 33.225 286.798 L 33.225 286.798 L 107.062 286.798 L 107.062 226.163 L 107.062 226.163 L 107.062 226.153 C 107.062 220.417 108.205 214.739 110.443 209.463 C 112.603 204.362 115.73 199.72 119.648 195.811 C 123.567 191.883 128.199 188.756 133.3 186.596 C 138.586 184.368 144.264 183.215 150 183.225 C 155.736 183.215 161.414 184.368 166.7 186.596 C 171.801 188.756 176.433 191.883 180.352 195.811 C 184.27 199.72 187.397 204.362 189.557 209.463 C 191.795 214.739 192.938 220.417 192.938 226.153 C 192.938 226.153 192.938 226.153 192.938 226.163 L 192.938 286.798 L 266.775 286.798 L 266.775 286.798 C 275.58 286.798 284.042 283.3 290.267 277.075 C 296.502 270.84 300 262.388 300 253.573 L 300 253.573 L 300 139.349 L 300 139.349 L 300 139.31 C 299.99 137.16 299.824 135.01 299.502 132.88 C 299.179 130.739 298.72 128.609 298.143 126.518 C 296.961 122.296 295.349 118.202 293.335 114.293 C 291.342 110.384 288.948 106.691 286.202 103.27 C 284.844 101.58 283.388 99.967 281.834 98.453 C 280.29 96.958 278.638 95.56 276.889 94.3 C 276.889 94.3 276.879 94.29 276.87 94.28 L 174.274 20.697 C 174.244 20.678 174.225 20.668 174.205 20.648 C 170.59 18.108 166.573 16.192 162.322 14.99 C 158.15 13.788 153.831 13.192 149.482 13.202 C 145.153 13.192 140.844 13.788 136.681 14.981 C 132.44 16.173 128.423 18.078 124.818 20.619 C 124.798 20.629 124.779 20.648 124.759 20.668 L 23.16 93.332 C 23.15 93.342 23.14 93.352 23.13 93.352 C 21.391 94.612 19.739 96 18.195 97.505 C 16.632 99.01 15.176 100.622 13.818 102.303 C 11.062 105.733 8.668 109.427 6.674 113.336 C 4.651 117.235 3.039 121.329 1.857 125.551 C 1.28 127.642 0.821 129.762 0.498 131.912 C 0.176 134.042 0.01 136.192 0 138.342" fill-rule="evenodd" fill="rgb(17,17,17)"/></g></svg>