<?xml version="1.0" encoding="UTF-8" standalone="no"?><!-- Generator: Gravit.io --><svg xmlns="http://www.w3.org/2000/svg" xmlns:xlink="http://www.w3.org/1999/xlink" style="isolation:isolate" viewBox="0 0 300 300" width="300pt" height="300pt"><defs><clipPath id="_clipPath_LyXyqZ3BZB6NClepcLE3tmNODvL9FVI5"><rect width="300" height="300"/></clipPath></defs><g clip-path="url(#_clipPath_LyXyqZ3BZB6NClepcLE3tmNODvL9FVI5)"><rect width="300" height="300" style="fill:rgb(0,0,0)" fill-opacity="0"/><path d=" M 0 138.381 C 0 138.371 0 138.352 0 138.342 C 0 138.352 0 138.371 0 138.381 L 0 138.381 L 0 253.573 L 0 253.573 C 0 262.388 3.498 270.84 9.733 277.075 C 15.958 283.3 24.42 286.798 33.225 286.798 L 33.225 286.798 L 107.062 286.798 L 107.062 226.163 L 107.062 226.163 L 107.062 226.153 C 107.062 220.417 108.205 214.739 110.443 209.463 C 112.603 204.362 115.73 199.72 119.648 195.811 C 123.567 191.883 128.199 188.756 133.3 186.596 C 138.586 184.368 144.264 183.215 150 183.225 C 155.736 183.215 161.414 184.368 166.7 186.596 C 171.801 188.756 176.433 191.883 180.352 195.811 C 184.27 199.72 187.397 204.362 189.557 209.463 C 191.795 214.739 192.938 220.417 192.938 226.153 C 192.938 226.153 192.938 226.153 192.938 226.163 L 192.938 286.798 L 266.775 286.798 L 266.775 286.798 C 275.58 286.798 284.042 283.3 290.267 277.075 C 296.502 270.84 300 262.388 300 253.573 L 300 253.573 L 300 139.349 L 300 139.349 L 300 139.31 C 299.99 137.16 299.824 135.01 299.502 132.88 C 299.179 130.739 298.72 128.609 298.143 126.518 C 296.961 122.296 295.349 118.202 293.335 114.293 C 291.342 110.384 288.948 106.691 286.202 103.27 C 284.844 101.58 283.388 99.967 281.834 98.453 C 280.29 96.958 278.638 95.56 276.889 94.3 C 276.889 94.3 276.879 94.29 276.87 94.28 L 174.274 20.697 C 174.244 20.678 174.225 20.668 174.205 20.648 C 170.59 18.108 166.573 16.192 162.322 14.99 C 158.15 13.788 153.831 13.192 149.482 13.202 C 145.153 13.192 140.844 13.788 136.681 14.981 C 132.44 16.173 128.423 18.078 124.818 20.619 C 124.798 20.629 124.779 20.648 124.759 20.668 L 23.16 93.332 C 23.15 93.342 23.14 93.352 23.13 93.352 C 21.391 94.612 19.739 96 18.195 97.505 C 16.632 99.01 15.176 100.622 13.818 102.303 C 11.062 105.733 8.668 109.427 6.674 113.336 C 4.651 117.235 3.039 121.329 1.857 125.551 C 1.28 127.642 0.821 129.762 0.498 131.912 C 0.176 134.042 0.01 136.192 0 138.342" fill="rgb(0,0,0)"/></g></svg>