<?xml version="1.0" encoding="UTF-8" standalone="no"?><!-- Generator: Gravit.io --><svg xmlns="http://www.w3.org/2000/svg" xmlns:xlink="http://www.w3.org/1999/xlink" style="isolation:isolate" viewBox="0 0 300 300" width="300pt" height="300pt"><defs><clipPath id="_clipPath_0sz3n0zVjQ2kmYsQEZnurJnt4OLvCi3D"><rect width="300" height="300"/></clipPath></defs><g clip-path="url(#_clipPath_0sz3n0zVjQ2kmYsQEZnurJnt4OLvCi3D)"><rect width="300" height="300" style="fill:rgb(0,0,0)" fill-opacity="0"/><linearGradient id="_lgradient_0" x1="0.12669154305278518" y1="0.8300648095322563" x2="0.8766185298688309" y2="0.15783296098994537" gradientTransform="matrix(299.941,0,0,299.941,0,0.029)" gradientUnits="userSpaceOnUse"><stop offset="0%" stop-opacity="1" style="stop-color:rgb(255,221,85)"/><stop offset="50.43478260869565%" stop-opacity="1" style="stop-color:rgb(255,84,62)"/><stop offset="98.69565217391305%" stop-opacity="1" style="stop-color:rgb(200,55,171)"/></linearGradient><path d=" M 0 150 C 0 67.229 67.2 0.029 149.971 0.029 C 232.742 0.029 299.941 67.229 299.941 150 C 299.941 232.771 232.742 299.971 149.971 299.971 C 67.2 299.971 0 232.771 0 150 Z " fill-rule="evenodd" fill="url(#_lgradient_0)"/><path d=" M 149.973 56.93 C 111.845 56.93 75.639 53.538 61.809 89.031 C 56.097 103.689 56.926 122.727 56.926 149.987 C 56.926 173.907 56.16 196.389 61.809 210.933 C 75.607 246.446 112.107 243.044 149.952 243.044 C 186.463 243.044 224.108 246.845 238.105 210.933 C 243.828 196.127 242.988 177.373 242.988 149.987 C 242.988 113.634 244.993 90.165 227.363 72.544 C 209.512 54.693 185.371 56.93 149.931 56.93 L 149.973 56.93 Z  M 141.635 73.7 C 221.167 73.574 231.29 64.732 225.704 187.558 C 223.719 231 190.642 226.232 149.983 226.232 C 75.849 226.232 73.717 224.111 73.717 149.945 C 73.717 74.918 79.597 73.742 141.635 73.679 L 141.635 73.7 Z  M 199.641 89.146 C 193.477 89.146 188.479 94.144 188.479 100.308 C 188.479 106.472 193.477 111.47 199.641 111.47 C 205.805 111.47 210.803 106.472 210.803 100.308 C 210.803 94.144 205.805 89.146 199.641 89.146 Z  M 149.973 102.198 C 123.585 102.198 102.195 123.599 102.195 149.987 C 102.195 176.375 123.585 197.765 149.973 197.765 C 176.361 197.765 197.74 176.375 197.74 149.987 C 197.74 123.599 176.361 102.198 149.973 102.198 Z  M 149.973 118.968 C 190.978 118.968 191.03 181.006 149.973 181.006 C 108.978 181.006 108.915 118.968 149.973 118.968 Z " fill="rgb(255,255,255)"/></g></svg>