<?xml version="1.0" encoding="UTF-8" standalone="no"?><!-- Generator: Gravit.io --><svg xmlns="http://www.w3.org/2000/svg" xmlns:xlink="http://www.w3.org/1999/xlink" style="isolation:isolate" viewBox="0 0 300 300" width="300pt" height="300pt"><defs><clipPath id="_clipPath_6qa90OTOVAISAADn5ozBeR77BY3L7CiP"><rect width="300" height="300"/></clipPath></defs><g clip-path="url(#_clipPath_6qa90OTOVAISAADn5ozBeR77BY3L7CiP)"><rect width="300" height="300" style="fill:rgb(0,0,0)" fill-opacity="0"/><linearGradient id="_lgradient_0" x1="0.12669154305278518" y1="0.8300648095322563" x2="0.8766185298688309" y2="0.15783296098994537" gradientTransform="matrix(299.941,0,0,299.941,0,0.029)" gradientUnits="userSpaceOnUse"><stop offset="0%" stop-opacity="1" style="stop-color:rgb(255,221,85)"/><stop offset="50.43478260869565%" stop-opacity="1" style="stop-color:rgb(255,84,62)"/><stop offset="98.69565217391305%" stop-opacity="1" style="stop-color:rgb(200,55,171)"/></linearGradient><circle vector-effect="non-scaling-stroke" cx="149.9705469060692" cy="149.99999999999997" r="149.97054690606922" fill="url(#_lgradient_0)"/><path d=" M 159.98 140 L 194.57 140 L 194.57 140 C 197.22 140 199.77 141.05 201.64 142.93 C 203.52 144.8 204.57 147.35 204.57 150 C 204.57 152.65 203.52 155.2 201.64 157.07 C 199.77 158.95 197.22 160 194.57 160 L 159.98 160 L 159.98 194.59 C 159.98 197.24 158.93 199.79 157.05 201.66 C 155.18 203.54 152.63 204.59 149.98 204.59 C 147.33 204.59 144.78 203.54 142.91 201.66 C 141.03 199.79 139.98 197.24 139.98 194.59 L 139.98 160 L 105.39 160 C 102.74 160 100.19 158.95 98.32 157.07 C 96.44 155.2 95.39 152.65 95.39 150 C 95.39 147.35 96.44 144.8 98.32 142.93 C 100.19 141.05 102.74 140 105.39 140 L 139.98 140 L 139.98 105.41 C 139.98 102.76 141.03 100.21 142.91 98.34 C 144.78 96.46 147.33 95.41 149.98 95.41 C 152.63 95.41 155.18 96.46 157.05 98.34 C 158.93 100.21 159.98 102.76 159.98 105.41 L 159.98 140 Z  M 264.49 150.01 C 264.49 150 264.49 150 264.49 150 L 264.49 150 L 264.49 150.01 L 264.49 150.01 L 264.49 150.01 L 264.49 150.01 L 264.49 150.01 L 264.49 150.01 Z  M 264.49 150.01 C 264.49 150 264.49 150 264.49 150 L 264.49 150.01 L 264.49 150.01 L 264.49 150.01 L 264.49 150.01 L 264.49 150.01 L 264.49 150.01 Z  M 68.37 102.32 C 69.71 100.04 70.09 97.31 69.42 94.74 C 68.75 92.18 67.09 89.98 64.8 88.64 C 62.51 87.3 59.78 86.92 57.22 87.59 C 54.65 88.26 52.46 89.92 51.12 92.21 C 47.78 97.9 44.94 103.87 42.64 110.05 C 41.71 112.54 41.81 115.29 42.91 117.7 C 44.01 120.11 46.03 121.99 48.51 122.92 C 51 123.84 53.75 123.74 56.16 122.64 C 58.57 121.54 60.45 119.52 61.38 117.04 C 63.28 111.94 65.62 107.02 68.37 102.32 L 68.37 102.32 L 68.37 102.32 L 68.37 102.32 L 68.37 102.32 Z  M 102.3 68.39 C 104.59 67.05 106.25 64.85 106.92 62.29 C 107.59 59.72 107.21 56.99 105.87 54.71 C 104.53 52.42 102.34 50.76 99.77 50.09 C 97.21 49.42 94.48 49.8 92.19 51.14 C 86.55 54.44 81.21 58.22 76.21 62.43 C 74.18 64.14 72.92 66.59 72.69 69.23 C 72.47 71.87 73.3 74.5 75.01 76.53 C 76.72 78.55 79.17 79.82 81.81 80.04 C 84.45 80.27 87.08 79.43 89.11 77.72 C 93.23 74.24 97.65 71.12 102.3 68.39 L 102.3 68.39 L 102.3 68.39 L 102.3 68.39 Z  M 149.98 55.49 C 152.63 55.49 155.17 54.43 157.05 52.56 C 158.92 50.68 159.98 48.14 159.98 45.49 C 159.98 42.84 158.93 40.29 157.05 38.42 C 155.18 36.54 152.63 35.49 149.98 35.49 C 143.09 35.48 136.2 36.1 129.42 37.33 C 126.81 37.8 124.49 39.3 122.98 41.47 C 121.47 43.65 120.89 46.35 121.36 48.95 C 121.84 51.56 123.33 53.88 125.51 55.39 C 127.69 56.9 130.38 57.48 132.99 57.01 C 138.59 55.99 144.28 55.48 149.98 55.49 L 149.98 55.49 L 149.98 55.49 Z  M 55.46 150.01 C 55.47 147.36 54.41 144.81 52.54 142.93 C 50.67 141.06 48.12 140 45.47 140 C 42.82 140 40.27 141.05 38.4 142.92 C 36.52 144.8 35.47 147.34 35.46 149.99 C 35.45 165.3 38.52 180.46 44.48 194.56 C 50.24 208.16 58.57 220.52 69.02 230.96 C 79.46 241.41 91.82 249.74 105.42 255.51 C 119.52 261.46 134.67 264.53 149.98 264.51 C 165.29 264.53 180.44 261.46 194.54 255.51 C 208.14 249.74 220.5 241.41 230.94 230.96 C 241.39 220.52 249.72 208.16 255.49 194.56 C 261.44 180.46 264.51 165.31 264.49 150 C 264.5 138.04 262.64 126.15 258.96 114.77 C 255.4 103.78 250.2 93.4 243.53 83.97 C 230.22 65.13 211.54 50.73 189.93 42.66 C 187.45 41.73 184.69 41.83 182.28 42.93 C 179.87 44.03 177.99 46.05 177.06 48.53 C 176.14 51.01 176.23 53.77 177.33 56.18 C 178.43 58.59 180.45 60.47 182.93 61.4 C 200.78 68.06 216.21 79.95 227.2 95.52 C 232.7 103.29 237 111.86 239.93 120.92 C 242.96 130.31 244.5 140.12 244.49 149.99 C 244.49 150 244.49 150 244.49 150 L 244.49 150 L 244.49 150.01 C 244.5 162.63 241.98 175.14 237.07 186.77 C 232.31 198 225.42 208.2 216.8 216.82 C 208.18 225.44 197.98 232.33 186.75 237.09 C 175.11 242 162.61 244.53 149.98 244.51 C 137.35 244.53 124.85 242 113.21 237.09 C 101.98 232.33 91.78 225.44 83.16 216.82 C 74.54 208.2 67.65 198 62.89 186.77 C 57.98 175.14 55.46 162.63 55.46 150.01 L 55.46 150.01 L 55.46 150.01 L 55.46 150.01 L 55.46 150.01 L 55.46 150.01 Z " fill-rule="evenodd" fill="rgb(255,255,255)"/></g></svg>