<?xml version="1.0" encoding="UTF-8" standalone="no"?><!-- Generator: Gravit.io --><svg xmlns="http://www.w3.org/2000/svg" xmlns:xlink="http://www.w3.org/1999/xlink" style="isolation:isolate" viewBox="0 0 300 300" width="300" height="300"><defs><clipPath id="_clipPath_Q1tINBcpmbj5adaXTQEJXRds5s3uOuvS"><rect width="300" height="300"/></clipPath></defs><g clip-path="url(#_clipPath_Q1tINBcpmbj5adaXTQEJXRds5s3uOuvS)"><rect width="300" height="300" style="fill:rgb(0,0,0)" fill-opacity="0"/><path d=" M 104.722 132.57 L 150 132.57 L 195.278 132.57 C 204.997 132.57 207.718 138.531 201.353 145.874 L 181.443 168.841 L 161.534 191.807 C 155.168 199.15 144.832 199.15 138.466 191.807 L 118.557 168.841 L 98.647 145.874 C 92.282 138.531 95.003 132.57 104.722 132.57 Z " fill="rgb(235,235,235)"/><path d=" M 190.31 107.785 L 190.31 34.908 C 190.31 25.634 182.781 18.105 173.507 18.105 L 126.493 18.105 C 117.219 18.105 109.69 25.634 109.69 34.908 L 109.69 107.785 L 93.946 107.785 C 77.288 107.785 72.622 118.004 83.534 130.591 L 106.882 157.523 L 130.229 184.455 C 141.141 197.043 158.859 197.043 169.771 184.455 L 193.118 157.523 L 216.466 130.591 C 227.378 118.004 222.712 107.785 206.054 107.785 L 190.31 107.785 Z " fill-rule="evenodd" fill="rgb(0,0,0)"/><path d=" M 84.905 155.657 L 20.852 155.657 C 9.349 155.657 0.011 164.996 0.011 176.499 L 0.011 261.054 C 0.011 272.556 9.349 281.895 20.852 281.895 L 279.148 281.895 C 290.651 281.895 299.989 272.556 299.989 261.054 L 299.989 176.499 C 299.989 164.996 290.651 155.657 279.148 155.657 L 215.095 155.657 L 197.284 176.203 L 178.495 197.878 C 162.768 216.019 137.232 216.019 121.505 197.878 L 102.716 176.203 L 84.905 155.657 Z " fill-rule="evenodd" fill="rgb(0,0,0)"/></g></svg>