<?xml version="1.0" encoding="UTF-8" standalone="no"?><!-- Generator: Gravit.io --><svg xmlns="http://www.w3.org/2000/svg" xmlns:xlink="http://www.w3.org/1999/xlink" style="isolation:isolate" viewBox="0 0 300 300" width="300" height="300"><defs><clipPath id="_clipPath_ZoEElsrTQLUJabPPgtYyIqRUGEFmpsoV"><rect width="300" height="300"/></clipPath></defs><g clip-path="url(#_clipPath_ZoEElsrTQLUJabPPgtYyIqRUGEFmpsoV)"><rect width="300" height="300" style="fill:rgb(0,0,0)" fill-opacity="0"/><path d=" M 261.764 161.109 C 258.372 170.274 252.835 179.336 245.316 188.052 C 245.295 188.073 245.274 188.094 245.257 188.119 L 168.499 278.276 C 158.291 290.266 141.715 290.266 131.507 278.276 L 54.69 188.048 C 47.175 179.34 41.638 170.279 38.213 161.026 C 24.5 124.759 29.704 83.72 52.138 51.252 C 74.642 18.681 110.315 0 150.003 0 C 189.691 0 225.359 18.68 247.864 51.252 C 270.302 83.72 275.51 124.759 261.764 161.109 Z  M 92 116 C 92 83.989 117.989 58 150 58 C 182.011 58 208 83.989 208 116 C 208 148.011 182.011 174 150 174 C 117.989 174 92 148.011 92 116 Z " fill-rule="evenodd" fill="rgb(0,0,0)"/></g></svg>