<?xml version="1.0" encoding="UTF-8" standalone="no"?><!-- Generator: Gravit.io --><svg xmlns="http://www.w3.org/2000/svg" xmlns:xlink="http://www.w3.org/1999/xlink" style="isolation:isolate" viewBox="0 0 500 500" width="500" height="500"><defs><clipPath id="_clipPath_K3VfyhNykbf7T9SVHby0MWG1ApDE3asi"><rect width="500" height="500"/></clipPath></defs><g clip-path="url(#_clipPath_K3VfyhNykbf7T9SVHby0MWG1ApDE3asi)"><rect width="500" height="500" style="fill:rgb(0,0,0)" fill-opacity="0"/><path d=" M 225 363 L 247 351 L 258 378 L 279 379 L 285 394 L 258 390 L 248 381 L 227 382 L 225 363 Z " fill="rgb(185,185,185)"/><path d=" M 138 139 L 197 110 L 340 113 L 117 311 L 88 271 L 91 204 L 93 186 L 138 139 Z " fill="rgb(244,244,244)"/><path d=" M 132 338 L 135 297 L 138 288 L 162 286.22 L 195 333 L 213 367 L 197 363 L 179 374 L 132 338 Z " fill="rgb(200,200,200)"/><path d=" M 132 339 L 145 324 L 179 374 L 132 339 Z " fill="rgb(212,212,212)"/><path d=" M 190 224 L 193 234 L 172 268 L 160 290 L 142 293 L 140 299 L 117 311 L 117 311 L 117 311 L 140 243 L 190 224 Z  M 117 210 L 195 186 L 195 186 L 195 186 L 190 224 L 117 210 Z  M 117 210 L 190 224 L 190 224 L 140 243 L 117 311 L 117 210 L 117 210 Z  M 140 299 L 117 311 L 132 339 L 145 324 L 140 299 Z " fill-rule="evenodd" fill="rgb(233,233,233)"/><path d=" M 172.183 263.711 L 172 263 L 160 290 L 190 333 L 200 315 L 205 299 L 346 358 L 398 264 L 373 144 L 200 214 L 190 224 L 191 234 L 172.183 263.711 Z " fill-rule="evenodd" fill="rgb(191,191,191)"/><path d=" M 227 382 L 239 343 L 188 307 L 190 333 L 213 367 L 227 382 Z " fill="rgb(223,223,223)"/><path d=" M 250 315 L 188 307 L 212 328 L 223 332 L 258 342 L 250 315 Z " fill="rgb(154,154,154)"/><path d=" M 188 307 L 205 299 L 226 297 L 237 283 L 255 318 L 188 307 Z " fill="rgb(203,203,203)"/><path d=" M 227 341 L 212 328 L 223 328 L 261 343 L 266 367 L 246 353 L 246 342 L 227 341 Z " fill="rgb(181,181,181)"/><path d=" M 227 382 L 246 353 L 247 341 L 227 341 L 227 382 Z " fill="rgb(223,223,223)"/><path d=" M 280 379 L 266 366 L 246 352 L 257 382 L 280 379 Z " fill="rgb(185,185,185)"/><path d=" M 227 382 L 249 377 L 258 390 L 234 390 L 227 382 Z " fill="rgb(185,185,185)"/><path d=" M 130 165 L 117 210 L 194 187 L 194 120 L 185.34 126.089 L 138 139 L 130 165 Z " fill-rule="evenodd" fill="rgb(214,214,214)"/><path d=" M 205 276 L 236 289 L 228 298 L 202 302 L 205 276 Z " fill="rgb(203,203,203)"/><path d=" M 209 222 L 213 214 L 200 207 L 191 210 L 190 224 L 209 222 Z " fill="rgb(173,173,173)"/><path d=" M 193 198 L 214 215 L 191 210 L 193 198 Z " fill="rgb(173,173,173)"/><path d=" M 194 187 L 218 124 L 193 155 L 194 187 Z " fill="rgb(170,170,170)"/><path d=" M 219 219 L 241 290 L 232 290 L 205 276 L 219 219 Z " fill="rgb(233,233,233)"/><path d=" M 219 220 L 226 218 L 230 236 L 226 243 L 219 220 Z " fill="rgb(195,195,195)"/><path d=" M 237 229 L 226 218 L 230 236 L 237 229 Z " fill="rgb(151,151,151)"/><path d=" M 239 290 L 253 257 L 229 256 L 239 290 Z " fill="rgb(233,233,233)"/><path d=" M 226 243 L 234 239 L 255 242 L 262 250 L 252 258 L 230 258 L 226 243 Z " fill="rgb(204,204,204)"/><path d=" M 260 214 L 248 242 L 271 224 L 272 204 L 260 214 Z " fill="rgb(164,164,164)"/><path d=" M 274 242 L 262 250 L 255 242 L 248 242 L 264 229 L 274 242 Z " fill="rgb(170,170,170)"/><path d="" fill-rule="evenodd" fill="rgb(220,220,220)"/><path d=" M 248 207 L 272 204 L 298 219 L 314 224 L 340 210 L 321 94 L 209 104 L 248 207 Z " fill="rgb(235,235,235)"/><path d=" M 272 204 L 302 212 L 298 232 L 274 242 L 264 229 L 270 224 L 272 204 Z  M 314 216 L 302 212 L 298 232 L 314 216 Z  M 302 250 L 324 213 L 340 210 L 332 234 L 302 250 Z  M 298 232 L 314 216 L 324 213 L 302 250 L 298 232 Z  M 259 252 L 283 258 L 294 254 L 302 250 L 298 232 L 274 242 L 259 252 Z " fill-rule="evenodd" fill="rgb(221,221,221)"/><path d=" M 255 271 L 283 258 L 259 252 L 252 258 L 255 271 Z " fill="rgb(207,207,207)"/><path d=" M 248 242 L 247 196 L 258 200 L 272 204 L 260 214 L 248 242 Z " fill="rgb(212,212,212)"/><path d=" M 207 201 L 232 160 L 248 151 L 258 200 L 207 201 Z " fill="rgb(225,225,225)"/><path d=" M 209 222 L 212 214 L 200 196 L 222 187 L 248 196 L 248 242 L 234 239 L 226 243 L 230 236 L 237 229 L 226 218 L 219 220 L 209 222 Z " fill="rgb(232,232,232)"/><path d=" M 294 157 L 291 149 L 277 146 L 270 125 L 262 134 L 266 153 L 294 157 Z " fill="rgb(223,223,223)"/><path d=" M 232 160 L 222.864 184.666 L 212 214 L 193 198 L 194 187 L 212 139 L 218 124 L 226.133 144.915 L 251 129 L 232 160 Z " fill-rule="evenodd" fill="rgb(203,203,203)"/><path d=" M 337 346 L 314 324 L 311 309 L 300 297 L 283 258 L 255.157 267.944 L 252 258 L 239 290 L 248 317 L 258 342 L 266 367 L 277 379 L 285 394 L 328 369 L 346 366 L 348 350 L 337 346 Z " fill-rule="evenodd" fill="rgb(207,207,207)"/><path d=" M 337 346 L 319 307 L 346 326 L 362 321 L 381 336 L 375 353 L 346 366 L 337 346 Z " fill="rgb(183,183,183)"/><path d=" M 200 119.311 L 167 132 L 149 136 L 175 113 L 185 106 L 202 101 L 200 119.311 Z " fill="rgb(235,235,235)"/><path d=" M 193 121 L 218 125 L 193 155 L 193 121 Z " fill="rgb(221,221,221)"/><path d=" M 235 101 L 202 101 L 167 132 L 194 124 L 218 125 L 227 148 L 242 125 L 235 101 Z " fill-rule="evenodd" fill="rgb(220,220,220)"/><path d=" M 262 86 L 235 101 L 250 110 L 255 100 L 284 102 L 302 125 L 320 94 L 305 95 L 300 94 L 291 95 L 262 86 Z " fill-rule="evenodd" fill="rgb(193,193,193)"/><path d=" M 321 172 L 315 161 L 303 143 L 302 125 L 320 94 L 342 101 L 321 172 Z  M 351 172 L 332 180 L 321 172 L 342 101 L 350 126 L 351 172 Z " fill-rule="evenodd" fill="rgb(214,214,214)"/><path d=" M 382 142 L 350 126 L 350 153 L 376 165 L 382 142 Z " fill="rgb(193,193,193)"/><path d=" M 353 187 L 342 192 L 340 210 L 304 161 L 302 157 L 294 157 L 291 149 L 302 125 L 303 142 L 315 161 L 322 172 L 332 180 L 351 172 L 350 142 L 371 155 L 377 172 L 353 187 Z " fill-rule="evenodd" fill="rgb(171,171,171)"/><path d=" M 382 142 L 389 168 L 382 176 L 389 192 L 353 187 L 377 172 L 371 155 L 382 142 Z " fill="rgb(233,233,233)"/><path d=" M 353 187 L 389 192 L 353 207 L 358 212 L 340 210 L 341 196 L 342 192 L 353 187 Z " fill-rule="evenodd" fill="rgb(154,154,154)"/><path d=" M 261 123 L 251.174 121.035 L 251.174 121.035 L 261 123 L 255 100 L 250 110 L 235 101 L 240 125 L 227 148 L 245 134 L 232 160 L 248 151 L 266 153 L 262 134 L 270 125 L 261 123 L 261 123 Z  M 291 149 L 302 125 L 284 102 L 255 100 L 261 123 L 270 125 L 277 146 L 291 149 L 291 149 Z " fill-rule="evenodd" fill="rgb(241,241,241)"/><path d=" M 396 245 L 371 229 L 353 207 L 377 194 L 389 192 L 396 210 L 408 248 L 404 258 L 396 245 Z " fill-rule="evenodd" fill="rgb(194,194,194)"/><path d=" M 389 317 L 397.879 286.22 L 404 265 L 404 256 L 396 245 L 385 238 L 389 258 L 371 290 L 389 317 Z " fill="rgb(235,235,235)"/><path d=" M 326 315 L 337 303 L 346 326 L 337 346 L 326 315 Z  M 375 353 L 389 341 L 388 326 L 367 315 L 353 317 L 346 326 L 360 324 L 375 338 L 375 353 Z  M 346 326 L 336 288 L 367 315 L 353 317 L 346 326 Z " fill-rule="evenodd" fill="rgb(233,233,233)"/><path d=" M 332 234 L 305 278 L 288 271 L 283 258 L 332 234 Z " fill="rgb(194,194,194)"/><path d=" M 335 261 L 335 261 L 320 252 L 305 278 L 288 271 L 291 278 L 306 285 L 324 285 L 353 258 L 335 261 Z  M 314 324 L 337 346 L 321 299 L 291 278 L 300 297 L 311 309 L 314 324 L 314 324 Z " fill-rule="evenodd" fill="rgb(158,158,158)"/><path d=" M 355 265 L 392 321 L 389 341 L 386 330 L 367 315 L 340 293 L 346 326 L 326 315 L 320 300 L 291 278 L 324 285 L 353 258 L 355 265 Z " fill-rule="evenodd" fill="rgb(193,193,193)"/><path d=" M 381 305 L 380 283 L 392 264 L 389 258 L 375 242 L 373 258 L 353 258 L 355 265 L 381 305 Z " fill="rgb(235,235,235)"/><path d=" M 371 229 L 385 238 L 389 258 L 376 244 L 375.875 243.625 L 373 258 L 355 258 L 335 261 L 319 254 L 326 242 L 337 245 L 364 241 L 371 229 Z  M 332 234 L 371 229 L 358 212 L 340 210 L 332 234 Z  M 326 242 L 337 245 L 364 241 L 371 229 L 332 234 L 326 242 Z " fill-rule="evenodd" fill="rgb(193,193,193)"/></g></svg>