<?xml version="1.0" encoding="UTF-8" standalone="no"?><!-- Generator: Gravit.io --><svg xmlns="http://www.w3.org/2000/svg" xmlns:xlink="http://www.w3.org/1999/xlink" style="isolation:isolate" viewBox="0 0 300 300" width="300pt" height="300pt"><defs><clipPath id="_clipPath_TNNDnN1Uca3RrJ0QU9Htqa2Np6ABeocM"><rect width="300" height="300"/></clipPath></defs><g clip-path="url(#_clipPath_TNNDnN1Uca3RrJ0QU9Htqa2Np6ABeocM)"><rect width="300" height="300" style="fill:rgb(0,0,0)" fill-opacity="0"/><path d=" M 213.158 45.263 L 213.158 33.105 C 213.158 14.834 198.324 0 180.053 0 L 51.526 0 C 33.255 0 18.421 14.834 18.421 33.105 L 18.421 205.842 C 18.421 224.113 33.255 238.947 51.526 238.947 L 71.053 238.947 L 71.053 88.895 C 71.053 77.326 75.653 66.221 83.832 58.042 C 92.011 49.863 103.116 45.263 114.684 45.263 L 114.684 45.263 L 213.158 45.263 L 213.158 45.263 L 213.158 45.263 L 213.158 45.263 L 213.158 45.263 Z  M 230.711 120.579 C 233.361 120.579 235.911 121.629 237.781 123.509 C 239.661 125.379 240.711 127.929 240.711 130.579 C 240.711 133.229 239.661 135.779 237.781 137.649 C 235.911 139.529 233.361 140.579 230.711 140.579 L 137.711 140.579 C 135.061 140.579 132.511 139.529 130.641 137.649 C 128.761 135.779 127.711 133.229 127.711 130.579 C 127.711 127.929 128.761 125.379 130.641 123.509 C 132.511 121.629 135.061 120.579 137.711 120.579 L 230.711 120.579 L 230.711 120.579 L 230.711 120.579 Z  M 230.711 170.526 C 233.361 170.526 235.911 171.576 237.781 173.456 C 239.661 175.326 240.711 177.876 240.711 180.526 C 240.711 183.176 239.661 185.726 237.781 187.596 C 235.911 189.476 233.361 190.526 230.711 190.526 L 137.711 190.526 C 135.061 190.526 132.511 189.476 130.641 187.596 C 128.761 185.726 127.711 183.176 127.711 180.526 C 127.711 177.876 128.761 175.326 130.641 173.456 C 132.511 171.576 135.061 170.526 137.711 170.526 L 230.711 170.526 L 230.711 170.526 Z  M 119.947 61.053 L 248.474 61.053 C 266.745 61.053 281.579 75.887 281.579 94.158 L 281.579 266.895 C 281.579 285.166 266.745 300 248.474 300 L 119.947 300 C 101.676 300 86.842 285.166 86.842 266.895 L 86.842 94.158 C 86.842 75.887 101.676 61.053 119.947 61.053 L 119.947 61.053 L 119.947 61.053 L 119.947 61.053 Z  M 230.711 220.474 C 233.361 220.474 235.911 221.524 237.781 223.404 C 239.661 225.274 240.711 227.824 240.711 230.474 C 240.711 233.124 239.661 235.674 237.781 237.544 C 235.911 239.424 233.361 240.474 230.711 240.474 L 137.711 240.474 C 135.061 240.474 132.511 239.424 130.641 237.544 C 128.761 235.674 127.711 233.124 127.711 230.474 C 127.711 227.824 128.761 225.274 130.641 223.404 C 132.511 221.524 135.061 220.474 137.711 220.474 L 230.711 220.474 Z " fill-rule="evenodd" fill="rgb(0,0,0)"/></g></svg>