<?xml version="1.0" encoding="utf-8" ?>
<!-- Generator: Adobe Illustrator 22.0.1, SVG Export Plug-In . SVG Version: 6.00 Build 0)  -->
<svg version="1.1" id="Layer_1" xmlns="http://www.w3.org/2000/svg" xmlns:xlink="http://www.w3.org/1999/xlink" x="0px" y="0px" viewBox="0 0 519 127" style="enable-background:new 0 0 519 127;" xml:space="preserve">
	<title>scraplogo</title>
	<g>
		<path class="st0" fill="#ffffff" d="M42.5,115c-10.8,0-21.2-3.8-27.9-10.3c-3.4-3.4-3.4-8.8-0.1-12.2c1.6-1.6,3.7-2.5,6-2.5l0.1,0l0.1,0
		c2.1,0.1,4.1,0.8,5.7,2.2C30.8,96,36.6,98,42.5,98c6.1,0,9.5-2.7,9.5-7.5c0-8.8-9.7-16.2-22.3-24.9l-1.6-1.1
		C15.6,55.8,0,45.1,0,26.5C0,11.9,11.9,0,26.5,0C38.3,0,51,9,51,22.5c0,4.7-3.8,8.5-8.5,8.5S34,27.2,34,22.5c0-2.2-3-5.5-7.5-5.5
		c-2.5,0-4.9,0.9-6.7,2.6c-1.8,1.7-2.8,4-2.8,6.5c0,0.1,0,0.2,0,0.3c0,8.9,9.7,16.2,22.3,25l1.6,1.1C53.4,61.2,69,71.9,69,90.5
		c0,7.3-2.8,13.6-8.2,18.2C55.9,112.7,49.4,115,42.5,115z" />
	</g>
	<g>
		<path class="st0" fill="#ffffff" d="M122.5,115C97.1,115,80,96.3,80,68.5C80,36.5,100.8,2,134.5,2c7.8,0,22.5,2.6,22.5,12.5c0,4.7-3.8,8.5-8.4,8.5
		c-1.9,0-3.7-0.6-5.2-1.7c-2-1.5-5-2.3-8.9-2.3C116.4,19,97,38.9,97,68.5c0,19,9.1,29.5,25.5,29.5c13.7,0,24.8-7.2,28.9-10.3
		c1.8-1.4,4.1-1.9,6.3-1.6c2.2,0.3,4.2,1.5,5.6,3.3c1.1,1.4,1.7,3.2,1.7,5.1v0c0,2.6-1.3,5.2-3.4,6.8
		C153.3,107.5,139.7,115,122.5,115z" />
	</g>
	<g>
		<path class="st0" fill="#ffffff" d="M264.4,115c-2,0-3.9-0.7-5.5-2c-2.3-1.9-4.5-3.9-6.7-5.9c-12.1-10.8-23.6-21.1-44.9-24.2
		c-4.2-0.6-7.4-4.2-7.3-8.5c0.1-4.2,3.2-7.7,7.3-8.4c18.7-2.8,30.7-10.5,30.7-19.5c0-13.2-13.8-23.5-31.5-23.5c-6,0-9.5,2.7-9.5,7.5
		c0,37.9-1.2,61.8-4,77.4l0,0.1c-0.9,4-4.3,6.8-8.4,7c0,0,0,0,0,0c-4.8,0-8.6-3.8-8.6-8.5l0-1.4c2.6-15.2,4-41,4-74.6
		c0-7.3,2.8-13.6,8.2-18.2c4.9-4.1,11.3-6.3,18.3-6.3c11.9,0,23.8,3.7,32.6,10.2c10.4,7.6,15.9,18,15.9,30.3
		c0,11.5-6.5,21.3-18.5,27.9c11.7,5.9,20.4,13.7,28.2,20.7c1.9,1.7,3.7,3.3,5.5,4.8c1.9,1.7,3,4.1,2.9,6.6c0,4.6-3.8,8.4-8.5,8.4
		C264.5,115,264.4,115,264.4,115z" />
	</g>
	<g>
		<path class="st0" fill="#ffffff" d="M360.5,127C360.5,127,360.5,127,360.5,127L360.5,127c-3.3-0.1-6.2-1.9-7.6-4.8c-6.3-12.6-11.7-25.9-15.8-39.4
		c-0.3,0-0.6,0-0.9,0c-1,0.1-2,0.1-3,0.1c-9.4,0-18.8-0.8-28-2.4c-2.6,13.3-4.1,24.2-4.1,25.9c0,4.7-3.8,8.5-8.5,8.5
		s-8.5-3.8-8.5-8.5c0-8.3,7.7-57.7,19.8-83.7c0.2-0.5,0.5-1,0.7-1.5C307,16,311.5,6,322.9,6c6.4,0,14.6,3.2,17.8,18.2l0.1,0.3
		c1.1,4.2,2.1,9.1,3.2,14.7c1.5,7.6,3.3,16,5.8,25.7c3.2-0.5,5.2-0.9,5.3-0.9l0.5,0h1c4.7,0,8.5,3.8,8.5,8.5c0,6.7-4.8,8.1-10.4,8.9
		c3.8,11.4,8.3,22.6,13.5,33.4c0.5,1.2,0.8,2.4,0.9,3.7C369,123.2,365.2,127,360.5,127z M308.7,63.9c7.8,1.4,15.8,2.1,23.8,2.1
		c-2.4-9.6-4.1-18.1-5.5-25c-1-4.9-1.8-9.1-2.7-12.5c-0.6-2.3-1.2-3.8-1.7-4.7c-0.7,0.9-1.7,2.7-3.4,6.4
		C315.6,37.5,312.1,48.9,308.7,63.9z" />
	</g>
	<g>
		<path class="st0" fill="#ffffff" d="M408.5,117C398,117,398,100,398,92.7v-2.2c0-18.2,3.9-40.8,10.5-60.6c1.3-4.4,6.1-6.9,10.5-5.5
		c3.6,1.1,6,4.4,6,8.2l0,0.1c-0.1,0.9-0.2,1.7-0.5,2.5c-5.8,17.5-9.5,38.7-9.5,55.4c0,5.3,0.5,10.6,1.7,15.7
		c0.2,0.8,0.3,1.5,0.3,2.3C417,113.2,413.2,117,408.5,117z M432.8,73c-0.1,0-0.2,0-0.3,0c-4.6,0.2-8.6-3.4-8.8-8.1
		c-0.2-4,2.5-7.6,6.4-8.6c19.3-5.8,27.9-16.1,27.9-23.8c0-10.3-6.6-15.5-19.5-15.5c-20.1,0-33.5,6.7-41.5,10.8
		c-3.8,1.9-6.4,3.2-8.5,3.2c-4.7,0-8.5-3.8-8.5-8.5v0c0-2.9,1.5-5.5,4-7.1l0.2-0.1C390.1,11.7,411.3,0,438.5,0
		c9.8,0,18.8,2.9,25.3,8c7.3,5.9,11.2,14.3,11.2,24.5c0,17.7-14.9,32.7-40,40.2C434.3,72.9,433.5,73,432.8,73z" />
	</g>
	<g>
		<path class="st0" fill="#ffffff" d="M510.5,115c-5.2,0-12.5-2.6-12.5-8.5c0-2.2,0.8-4.3,2.3-5.9c1.6-1.6,3.6-2.5,5.9-2.6h0.3
		c5.2,0,12.5,2.6,12.5,8.5c0,2.2-0.8,4.3-2.3,5.9s-3.6,2.5-5.9,2.6H510.5z" />
	</g>
</svg>
