<?xml version="1.0" encoding="utf-8"?>
<!-- Generator: Adobe Illustrator 24.1.1, SVG Export Plug-In . SVG Version: 6.00 Build 0)  -->
<svg version="1.1" xmlns="http://www.w3.org/2000/svg" xmlns:xlink="http://www.w3.org/1999/xlink" x="0px" y="0px"
	 viewBox="0 0 438 110" style="enable-background:new 0 0 438 110;" xml:space="preserve">
<style type="text/css">
	.st0{display:none;}
	.st1{display:inline;stroke:#000000;stroke-miterlimit:10;}
	.st2{display:inline;}
	.st3{fill:#FFFFFF;}
</style>
<g id="Layer_2" class="st0">
	<rect x="-12.5" y="-45.5" class="st1" width="471" height="200"/>
</g>
<g id="Layer_1" class="st0">
	<g>
		<g class="st2">
			<path class="st3" d="M9.97,108.47c-3.42,0-5.13-1.71-5.13-5.13s1.71-5.13,5.13-5.13c22.8,0,38.47-1.57,47.02-4.72
				c3.99-1.47,5.98-3.05,5.98-4.75c0-1.69-1.4-3.23-4.19-4.61c-2.79-1.38-7.47-3.17-14.02-5.35c-6.56-2.19-11.54-4.03-14.96-5.53
				C13.16,66.23,4.84,55.59,4.84,41.31c0-9.29,3.99-17.12,11.97-23.49c7.98-6.37,17.55-9.55,28.73-9.55
				c6.16,0,11.31,1.82,15.48,5.47c4.16,3.65,6.24,8.04,6.24,13.17s-2,9.69-5.98,13.68c-3.99,3.99-6.73,5.99-8.21,5.99
				c-3.42,0-5.13-1.71-5.13-5.13c0-1.48,1.51-3.73,4.53-6.75c3.02-3.02,4.53-5.33,4.53-6.93c0-2.74-1.06-4.96-3.16-6.67
				c-2.11-1.71-4.82-2.56-8.12-2.56c-8.44,0-15.65,2.16-21.63,6.47c-5.99,4.32-8.98,9.53-8.98,15.63c0,6.1,1.68,10.88,5.04,14.33
				c3.36,3.45,7.18,6.07,11.46,7.86c4.27,1.78,8.58,3.4,12.91,4.83c4.33,1.44,7.95,2.71,10.86,3.8c2.91,1.1,5.84,2.45,8.81,4.06
				c6.04,3.34,9.06,7.71,9.06,13.12c0,6.73-4.99,11.72-14.96,14.97C48.3,106.85,32.2,108.47,9.97,108.47z M150.19,100.61
				c-10.49,5.25-20.69,7.87-30.61,7.87s-17.84-4-23.77-12c-5.93-8-8.89-17.29-8.89-27.88s1.51-20.28,4.53-29.06
				c3.02-8.78,7.87-16.19,14.53-22.22c6.67-6.03,14.56-9.04,23.68-9.04c3.65,0,7.12,0.91,10.43,2.74c3.31,1.83,4.96,3.76,4.96,5.81
				c0,3.42-1.71,5.13-5.13,5.13c-1.03,0-2.54-0.57-4.53-1.71c-2-1.14-3.91-1.71-5.73-1.71c-7.07,0-13.17,2.59-18.3,7.77
				c-9.46,9.55-14.19,23.42-14.19,41.61c0,7.75,1.99,14.74,5.98,20.97c3.99,6.23,9.4,9.34,16.25,9.34c8.44,0,17.33-2.15,26.68-6.45
				c2.05-0.94,3.42-1.42,4.1-1.42c3.42,0,5.13,1.57,5.13,4.72c0,1.3-0.34,2.31-1.03,3.02C153.61,98.79,152.24,99.63,150.19,100.61z"
				/>
			<path class="st3" d="M119.58,109.97c-10.38,0-18.78-4.24-24.97-12.6c-6.1-8.22-9.19-17.91-9.19-28.77
				c0-10.71,1.55-20.65,4.61-29.55c3.09-8.98,8.12-16.67,14.95-22.85c6.92-6.26,15.23-9.43,24.69-9.43c3.88,0,7.63,0.98,11.15,2.92
				c3.81,2.1,5.74,4.5,5.74,7.13c0,4.28-2.35,6.63-6.63,6.63c-1.33,0-3-0.61-5.28-1.91c-1.76-1-3.44-1.51-4.98-1.51
				c-6.71,0-12.35,2.4-17.23,7.33c-9.13,9.22-13.76,22.86-13.76,40.55c0,7.42,1.93,14.2,5.75,20.16c3.73,5.82,8.63,8.65,14.98,8.65
				c8.18,0,16.95-2.12,26.05-6.31c3-1.38,4.1-1.55,4.73-1.55c4.21,0,6.63,2.27,6.63,6.22c0,1.7-0.49,3.07-1.45,4.06
				c-0.82,0.84-2.3,1.77-4.52,2.83C140.2,107.27,129.68,109.97,119.58,109.97z M129.67,9.77c-8.69,0-16.32,2.91-22.68,8.66
				c-6.45,5.83-11.2,13.1-14.12,21.6c-2.95,8.58-4.45,18.2-4.45,28.57c0,10.21,2.89,19.29,8.6,26.99
				c5.68,7.67,13.06,11.39,22.56,11.39c9.64,0,19.71-2.59,29.94-7.71l0.03-0.01c2.46-1.17,3.36-1.89,3.67-2.21
				c0.4-0.41,0.6-1.08,0.6-1.97c0-1.93-0.62-3.22-3.63-3.22c-0.07,0-0.78,0.04-3.48,1.28c-9.5,4.37-18.69,6.59-27.3,6.59
				c-7.35,0-13.25-3.38-17.51-10.04c-4.13-6.44-6.22-13.77-6.22-21.77c0-18.51,4.92-32.86,14.63-42.66
				c5.4-5.45,11.91-8.21,19.36-8.21c2.08,0,4.25,0.64,6.47,1.91c2.3,1.32,3.36,1.51,3.79,1.51c2.58,0,3.63-1.05,3.63-3.63
				c0-1.81-2.28-3.45-4.18-4.5C136.31,10.62,133.04,9.77,129.67,9.77z M9.97,109.97c-4.28,0-6.63-2.35-6.63-6.63
				s2.35-6.63,6.63-6.63c22.51,0,38.16-1.56,46.51-4.63c4.76-1.75,5-3.09,5-3.34c0-1.33-1.82-2.51-3.35-3.27
				c-2.73-1.35-7.38-3.12-13.83-5.27c-6.54-2.18-11.62-4.06-15.09-5.57C12.05,67.39,3.34,56.18,3.34,41.31
				c0-9.73,4.22-18.03,12.53-24.67c8.21-6.56,18.19-9.88,29.66-9.88c6.5,0,12.04,1.97,16.46,5.84c4.48,3.93,6.75,8.74,6.75,14.3
				c0,5.52-2.16,10.48-6.42,14.74c-5.69,5.69-7.94,6.42-9.27,6.42c-4.28,0-6.63-2.35-6.63-6.63c0-1.94,1.58-4.42,4.97-7.81
				c3.69-3.69,4.09-5.33,4.09-5.86c0-2.28-0.85-4.08-2.61-5.5c-1.85-1.5-4.2-2.23-7.18-2.23c-8.07,0-15.06,2.08-20.75,6.19
				c-5.62,4.06-8.35,8.77-8.35,14.41c0,5.67,1.55,10.14,4.62,13.28c3.2,3.29,6.89,5.82,10.96,7.52c4.23,1.77,8.54,3.38,12.8,4.79
				c4.34,1.44,8.01,2.73,10.91,3.82c2.96,1.11,5.98,2.51,8.99,4.14c6.54,3.61,9.85,8.47,9.85,14.44c0,7.42-5.38,12.94-16,16.4
				C48.67,108.31,32.26,109.97,9.97,109.97z M45.54,9.77c-10.77,0-20.12,3.1-27.79,9.23C10.07,25.12,6.34,32.42,6.34,41.31
				c0,13.74,7.87,23.73,24.05,30.56c3.4,1.49,8.4,3.33,14.85,5.48c6.58,2.19,11.36,4.02,14.21,5.43c3.33,1.65,5.02,3.66,5.02,5.96
				c0,3.22-3.98,5.05-6.97,6.15c-8.68,3.19-24.67,4.81-47.54,4.81c-2.58,0-3.63,1.05-3.63,3.63s1.05,3.63,3.63,3.63
				c21.97,0,38.07-1.62,47.84-4.8c9.37-3.06,13.93-7.49,13.93-13.55c0-4.86-2.71-8.73-8.29-11.81c-2.88-1.56-5.78-2.9-8.61-3.96
				c-2.87-1.08-6.5-2.35-10.8-3.78c-4.34-1.44-8.72-3.08-13.02-4.87c-4.45-1.86-8.47-4.61-11.95-8.19
				c-3.63-3.73-5.47-8.9-5.47-15.38c0-6.58,3.23-12.25,9.6-16.84c6.22-4.48,13.79-6.76,22.51-6.76c3.64,0,6.69,0.98,9.07,2.9
				c2.47,2,3.72,4.64,3.72,7.83c0,2.06-1.58,4.6-4.97,7.99c-3.8,3.8-4.09,5.32-4.09,5.69c0,2.58,1.05,3.63,3.63,3.63
				c0.27,0,1.87-0.27,7.15-5.55c3.73-3.73,5.55-7.86,5.55-12.62c0-4.72-1.87-8.66-5.73-12.04C56.16,11.48,51.29,9.77,45.54,9.77z"/>
		</g>
		<g class="st2">
			<path class="st3" d="M179.26,81.11l0.85-20.52c0-4.1,0.14-10.54,0.43-19.32c0.28-8.78,0.43-14.71,0.43-17.78
				c-2.97,0.8-4.68,1.2-5.13,1.2c-3.42,0-5.13-1.71-5.13-5.13c0-2.39,1.71-4.1,5.13-5.13c13.68-4.1,24.71-6.16,33.09-6.16
				s15.5,1.77,21.38,5.3c5.87,3.53,8.81,8.95,8.81,16.24c0,11.06-12.14,21.32-36.42,30.78c12.02,7.3,21.69,14.25,29.01,20.86
				c2.52,2.28,5.55,5.19,9.1,8.72c3.55,3.54,5.32,7.92,5.32,13.17c0,3.42-1.71,5.13-5.13,5.13s-5.13-1.71-5.13-5.13
				c0-2.39-0.8-4.39-2.39-5.99c-3.88-3.87-7.07-6.95-9.58-9.23c-6.5-5.93-17.73-13.62-33.69-23.08l-0.68,16.07l1.71,18.81
				c0,3.42-1.71,5.13-5.13,5.13c-3.08,0-4.79-1.71-5.13-5.13C179.83,88.52,179.26,82.25,179.26,81.11z M190.37,53.92
				c7.18-1.71,15.39-5.13,24.62-10.26c9.23-5.13,13.85-9.75,13.85-13.85c0-7.52-6.84-11.29-20.52-11.29
				c-5.36,0-11.06,0.68-17.1,2.05c0,3.76-0.14,9.55-0.43,17.36C190.52,45.75,190.37,51.08,190.37,53.92z M320.33,72.39
				c2.85,15.5,5.58,25.99,8.21,31.46c0.8,1.6,1.2,3.14,1.2,4.62c0,3.42-1.71,5.13-5.13,5.13c-1.83,0-3.54-1.71-5.13-5.13
				c-4.43-9.12-8.01-22.8-10.74-41.04c-7.16,0-16.76,1.1-28.8,3.28l-8.21,32.66c-0.46,1.81-1.06,3.12-1.8,3.91
				c-0.74,0.79-1.85,1.19-3.33,1.19c-3.42,0-5.13-1.71-5.13-5.13c0-0.91,0.07-1.6,0.21-2.05l7.3-29.58h-2.39
				c-3.42,0-5.13-1.71-5.13-5.13s1.71-5.13,5.13-5.13c1.99,0,3.64-0.06,4.97-0.18c2.74-10.03,6.62-22.74,11.64-38.13
				c3.19-9.92,8.33-14.87,15.4-14.87c2.05,0,4.25,0.77,6.59,2.31c2.34,1.54,4.02,4.19,5.05,7.95c2.62,9.35,5.25,22.8,7.87,40.36
				c1.82,0.68,4.22,2.2,7.18,4.53c2.96,2.34,4.45,4.25,4.45,5.73c0,3.42-1.71,5.13-5.13,5.13
				C323.81,74.27,322.39,73.65,320.33,72.39z M307.2,57.17c-3.75-25.76-6.58-38.65-8.51-38.65c-1.02,0-1.76,0.26-2.22,0.77
				c-0.45,0.51-0.79,0.88-1.02,1.11c-0.23,0.23-0.48,0.68-0.76,1.37s-0.48,1.14-0.6,1.37c-0.68,1.37-1.02,2.4-1.02,3.08
				c-5.22,15.75-8.68,26.93-10.38,33.55C291.09,58.27,299.26,57.41,307.2,57.17z"/>
			<path class="st3" d="M324.61,115.1c-2.48,0-4.61-1.96-6.49-6c-4.36-8.97-7.95-22.49-10.66-40.16c-6.7,0.12-15.53,1.15-26.3,3.07
				l-7.97,31.72c-0.53,2.09-1.23,3.58-2.16,4.57c-1.03,1.1-2.52,1.66-4.43,1.66c-4.28,0-6.63-2.35-6.63-6.63
				c0-1.09,0.09-1.88,0.27-2.49l6.82-27.65h-0.48c-4.28,0-6.63-2.35-6.63-6.63c0-4.28,2.35-6.63,6.63-6.63c1.45,0,2.72-0.03,3.8-0.1
				c2.71-9.85,6.54-22.35,11.38-37.17c3.4-10.55,9.06-15.91,16.83-15.91c2.34,0,4.83,0.86,7.41,2.56c2.64,1.74,4.55,4.7,5.67,8.81
				c2.59,9.22,5.21,22.57,7.78,39.69c1.83,0.83,4.05,2.29,6.75,4.41c3.42,2.7,5.02,4.9,5.02,6.91c0,4.28-2.35,6.63-6.63,6.63
				c-0.46,0-1.1-0.09-2.22-0.58c2.61,13.63,5.13,23.05,7.51,28.01c0.89,1.78,1.34,3.56,1.34,5.27
				C331.24,112.75,328.88,115.1,324.61,115.1z M308.74,65.93h1.29l0.19,1.28c2.69,18.01,6.26,31.67,10.6,40.61
				c1.29,2.77,2.63,4.29,3.78,4.29c2.58,0,3.63-1.05,3.63-3.63c0-1.24-0.35-2.56-1.04-3.95c-2.72-5.67-5.44-16.08-8.34-31.86
				l-0.61-3.3l2.87,1.75c2.64,1.61,3.41,1.66,3.49,1.66c2.58,0,3.63-1.05,3.63-3.63c0-0.35-0.28-1.71-3.88-4.55
				c-2.83-2.23-5.11-3.68-6.78-4.3l-0.83-0.31l-0.13-0.87c-2.6-17.4-5.24-30.92-7.83-40.17c-0.92-3.39-2.41-5.78-4.43-7.1
				c-2.08-1.37-4.02-2.06-5.76-2.06c-6.41,0-10.98,4.53-13.98,13.83c-5,15.31-8.9,28.11-11.62,38.06l-0.27,1l-1.04,0.09
				c-1.37,0.12-3.04,0.18-5.1,0.18c-2.58,0-3.63,1.05-3.63,3.63c0,2.58,1.05,3.63,3.63,3.63h4.31l-7.76,31.44
				c-0.07,0.25-0.16,0.69-0.16,1.69c0,2.58,1.05,3.63,3.63,3.63c1.04,0,1.8-0.24,2.24-0.71c0.39-0.41,0.95-1.31,1.44-3.25l8.44-33.6
				l0.95-0.17C291.76,67.04,301.54,65.93,308.74,65.93z M240.99,109.97c-4.28,0-6.63-2.35-6.63-6.63c0-2-0.64-3.61-1.96-4.93
				c-3.84-3.83-7.04-6.92-9.52-9.18c-6.1-5.56-16.62-12.83-31.29-21.62l-0.57,13.46l1.71,18.85c0,4.28-2.35,6.63-6.63,6.63
				c-3.85,0-6.2-2.3-6.62-6.48c-1.72-17.16-1.72-18.51-1.72-18.96l0-0.06l0.85-20.52c0-4.06,0.14-10.58,0.43-19.31
				c0.23-7.27,0.37-12.47,0.41-15.78c-2.91,0.75-3.35,0.75-3.62,0.75c-4.28,0-6.63-2.35-6.63-6.63c0-2.15,1.08-5.03,6.2-6.57
				c13.76-4.13,25.03-6.22,33.52-6.22c8.61,0,16.06,1.86,22.15,5.52c6.33,3.81,9.53,9.71,9.53,17.53
				c0,11.41-11.32,21.58-34.59,31.07c10.88,6.75,19.85,13.29,26.69,19.46c2.52,2.29,5.6,5.24,9.15,8.77
				c3.83,3.81,5.76,8.6,5.76,14.23C247.62,107.62,245.27,109.97,240.99,109.97z M188.81,62.47l2.16,1.28
				c15.97,9.47,27.39,17.3,33.93,23.27c2.52,2.29,5.75,5.41,9.63,9.28c1.88,1.88,2.83,4.25,2.83,7.05c0,2.58,1.05,3.63,3.63,3.63
				s3.63-1.05,3.63-3.63c0-4.87-1.6-8.83-4.88-12.1c-3.52-3.5-6.56-6.42-9.05-8.67c-7.23-6.52-16.91-13.48-28.79-20.69l-2.6-1.58
				l2.83-1.1c23.53-9.17,35.47-19.06,35.47-29.38c0-6.79-2.64-11.69-8.08-14.96c-5.61-3.38-12.54-5.09-20.6-5.09
				c-8.19,0-19.18,2.05-32.66,6.09c-4.06,1.22-4.06,3.08-4.06,3.69c0,2.58,1.05,3.63,3.63,3.63c0.13-0.01,0.93-0.12,4.74-1.15
				l1.89-0.51v1.96c0,3.06-0.14,8.9-0.43,17.83c-0.28,8.7-0.43,15.18-0.43,19.27l-0.85,20.55c0.01,0.82,0.31,4.74,1.7,18.63
				c0.33,3.33,2.03,3.78,3.64,3.78c2.56,0,3.61-1.03,3.63-3.56l-1.71-18.84L188.81,62.47z M280.66,61.66l0.58-2.26
				c1.69-6.59,5.17-17.85,10.34-33.44c0.06-0.9,0.44-2.01,1.17-3.48c0.1-0.21,0.29-0.63,0.55-1.28c0.37-0.9,0.7-1.47,1.08-1.85
				c0.22-0.22,0.54-0.57,0.96-1.05c0.75-0.85,1.87-1.28,3.34-1.28c1.96,0,4.19,0,9.99,39.93l0.24,1.67l-1.68,0.05
				c-7.83,0.23-16,1.1-24.28,2.58L280.66,61.66z M296.51,21.47c0,0-0.15,0.19-0.44,0.88c-0.3,0.73-0.51,1.21-0.63,1.46
				c-0.81,1.62-0.87,2.26-0.87,2.42v0.24l-0.08,0.23c-4.63,13.98-7.91,24.45-9.75,31.2c7.05-1.17,14-1.9,20.73-2.17
				c-4.14-28.15-6.32-34.38-7.19-35.68c-0.33,0.04-0.58,0.12-0.68,0.24C297.12,20.84,296.75,21.23,296.51,21.47
				C296.51,21.47,296.51,21.47,296.51,21.47z M188.87,55.82v-1.9c0-2.88,0.14-8.28,0.43-16.04c0.29-7.91,0.43-13.57,0.43-17.3v-1.2
				l1.17-0.26c6.12-1.39,11.99-2.09,17.43-2.09c14.61,0,22.02,4.3,22.02,12.79c0,4.74-4.78,9.7-14.62,15.16
				c-9.31,5.17-17.72,8.67-25.01,10.41L188.87,55.82z M192.72,21.79c-0.03,3.74-0.17,9.07-0.42,16.2c-0.23,6.23-0.37,10.92-0.41,14
				c6.58-1.8,14.1-5.04,22.38-9.63c10.81-6.01,13.08-10.13,13.08-12.54c0-2.42,0-9.79-19.02-9.79
				C203.45,20.03,198.21,20.62,192.72,21.79z"/>
		</g>
		<g class="st2">
			<path class="st3" d="M343.42,31.52c0-6.61,3.45-12.14,10.35-16.59c6.9-4.45,17.47-6.67,31.72-6.67
				c17.55,0,26.33,7.75,26.33,23.26c0,4.9-1.94,9.58-5.81,14.02c-2.05,2.28-6.67,5.13-13.85,8.55c-3.99,1.83-9.09,3.42-15.3,4.79
				c-6.21,1.37-9.38,2.05-9.49,2.05c-3.42,0-5.13-1.71-5.13-5.13c0-2.51,1.71-4.19,5.13-5.04s5.84-1.45,7.27-1.8
				c1.42-0.34,3.85-1,7.27-1.97c3.42-0.97,5.98-1.91,7.69-2.82c1.71-0.91,3.65-1.99,5.81-3.25c4.1-2.39,6.16-5.78,6.16-10.17
				c0-4.39-1.05-7.52-3.16-9.4s-6.3-2.82-12.57-2.82s-11.63,0.46-16.07,1.37c-4.45,0.91-7.75,2.05-9.92,3.42
				c-4.1,2.74-6.16,5.53-6.16,8.38c0,7.52,1.57,18.7,4.7,33.52c3.13,14.82,5.41,24.65,6.84,29.5c1.42,4.85,2.14,7.72,2.14,8.64
				c0,3.42-1.71,5.13-5.13,5.13c-1.6,0-2.74-0.4-3.42-1.2c-0.68-0.8-1.82-4.16-3.42-10.09c-1.6-5.93-3.99-16.33-7.18-31.21
				C345.01,51.1,343.42,39.62,343.42,31.52z"/>
			<path class="st3" d="M362.23,109.97c-2.05,0-3.58-0.58-4.56-1.72c-0.62-0.72-1.54-2.55-3.73-10.67
				c-1.6-5.93-4.02-16.45-7.2-31.28c-3.2-14.91-4.82-26.61-4.82-34.77c0-7.12,3.71-13.13,11.03-17.85
				c7.11-4.58,18.06-6.91,32.53-6.91c18.47,0,27.83,8.33,27.83,24.76c0,5.25-2.08,10.3-6.18,15.01c-2.22,2.47-6.9,5.38-14.34,8.92
				c-4.08,1.87-9.34,3.51-15.63,4.9c-9.49,2.09-9.58,2.09-9.81,2.09c-4.28,0-6.63-2.35-6.63-6.63c0-2.25,1.09-5.2,6.27-6.5
				c3.43-0.86,5.85-1.46,7.28-1.8c1.42-0.34,3.85-1,7.21-1.95c3.3-0.93,5.79-1.84,7.4-2.7c1.7-0.91,3.64-1.99,5.77-3.22
				c3.64-2.12,5.41-5.03,5.41-8.88c0-3.92-0.9-6.71-2.66-8.29c-1.25-1.11-4.27-2.44-11.57-2.44c-6.14,0-11.44,0.45-15.77,1.34
				c-4.25,0.88-7.42,1.96-9.42,3.22c-3.61,2.41-5.46,4.81-5.46,7.11c0,7.39,1.57,18.56,4.67,33.21c3.11,14.72,5.41,24.61,6.81,29.38
				c1.95,6.64,2.2,8.33,2.2,9.06C368.86,107.62,366.5,109.97,362.23,109.97z M385.48,9.77c-13.89,0-24.29,2.16-30.91,6.43
				c-6.5,4.19-9.66,9.2-9.66,15.33c0,7.96,1.6,19.44,4.76,34.14c3.17,14.78,5.58,25.25,7.16,31.13c2.11,7.85,2.92,9.26,3.11,9.51
				c0.47,0.55,1.5,0.67,2.28,0.67c2.58,0,3.63-1.05,3.63-3.63c0-0.34-0.2-1.83-2.08-8.21c-1.43-4.85-3.74-14.81-6.87-29.61
				c-3.14-14.84-4.74-26.23-4.74-33.83c0-3.37,2.3-6.61,6.82-9.63c2.37-1.5,5.77-2.68,10.45-3.64c4.53-0.93,10.04-1.4,16.38-1.4
				c6.71,0,11.15,1.05,13.57,3.2c2.43,2.17,3.67,5.71,3.67,10.52c0,4.94-2.32,8.8-6.9,11.47c-2.16,1.25-4.13,2.36-5.87,3.28
				c-1.82,0.97-4.43,1.94-7.99,2.94c-3.4,0.96-5.86,1.63-7.33,1.98c-1.43,0.34-3.84,0.94-7.25,1.79c-4,1-4,2.88-4,3.59
				c0,2.54,1.02,3.6,3.51,3.63c0.47-0.09,2.54-0.53,9.29-2.02c6.08-1.34,11.13-2.92,15-4.69c6.95-3.31,11.45-6.07,13.36-8.19
				c3.6-4.13,5.43-8.51,5.43-13.02C410.32,16.88,402.19,9.77,385.48,9.77z"/>
		</g>
		<g class="st2">
			<path class="st3" d="M444.31,95.48c1.82,0,3.7,0.8,5.64,2.39c1.94,1.6,2.91,3.31,2.91,5.13c0,1.82-0.77,3.19-2.31,4.1
				c-1.54,0.91-3.22,1.37-5.04,1.37c-1.82,0-3.33-0.83-4.53-2.48c-1.2-1.65-1.8-3.45-1.8-5.39
				C439.18,97.19,440.89,95.48,444.31,95.48z"/>
			<path class="st3" d="M445.5,109.97c-2.32,0-4.26-1.04-5.75-3.1c-1.38-1.9-2.08-4.01-2.08-6.27c0-4.28,2.35-6.63,6.63-6.63
				c2.17,0,4.39,0.92,6.6,2.74c2.29,1.89,3.45,4.01,3.45,6.29c0,2.35-1.05,4.21-3.04,5.39C449.55,109.44,447.59,109.97,445.5,109.97
				z M444.31,96.98c-2.58,0-3.63,1.05-3.63,3.63c0,1.63,0.49,3.1,1.51,4.51c0.92,1.27,1.97,1.86,3.32,1.86
				c1.57,0,2.97-0.38,4.28-1.16c1.09-0.64,1.57-1.51,1.57-2.81c0-1.36-0.77-2.66-2.36-3.97C447.34,97.67,445.76,96.98,444.31,96.98z
				"/>
		</g>
	</g>
</g>
<g id="Layer_3">
	<g>
		<g>
			<path class="st3" d="M19.32,79.13c1.17,0,2.51,0.5,3.51,1.34c2.34,2.17,7.85,5.34,14.86,5.34c6.35,0,10.02-3.34,10.02-8.35
				c0-8.35-8.18-14.7-19.54-22.55C17.82,47.73,4.29,39.04,4.29,24.01c0-11.02,9.02-20.04,20.04-20.04c8.68,0,18.37,6.51,18.37,16.7
				c0,2.67-2.34,5.01-5.01,5.01c-2.67,0-5.01-2.34-5.01-5.01c0-3.17-3.67-6.68-8.35-6.68c-5.68,0-10.02,4.34-10.02,10.02
				c0,8.35,8.18,14.7,19.54,22.55c10.35,7.18,23.88,15.87,23.88,30.9c0,11.69-9.69,18.37-20.04,18.37c-9.69,0-17.54-3.84-21.88-8.02
				c-1-1-1.5-2.34-1.5-3.67C14.31,81.46,16.65,79.13,19.32,79.13z"/>
			<path class="st3" d="M37.69,97.33c-8.86,0-17.43-3.15-22.92-8.44c-1.27-1.27-1.96-2.95-1.96-4.75c0-3.53,2.98-6.51,6.51-6.51
				c1.53,0,3.2,0.63,4.47,1.69c2.04,1.89,7.18,5,13.9,5c5.34,0,8.52-2.56,8.52-6.85c0-7.65-8.19-13.91-18.89-21.31l-1.32-0.92
				C15.66,48.09,2.79,39.2,2.79,24.01c0-11.88,9.66-21.54,21.54-21.54c9.6,0,19.87,7.31,19.87,18.2c0,3.53-2.98,6.51-6.51,6.51
				s-6.51-2.98-6.51-6.51c0-2.35-3.06-5.18-6.85-5.18c-4.86,0-8.52,3.66-8.52,8.52c0,7.65,8.19,13.91,18.89,21.31l1.32,0.91
				c10.34,7.14,23.21,16.03,23.21,31.22C59.23,90.5,48.4,97.33,37.69,97.33z M19.32,80.63c-1.84,0-3.51,1.67-3.51,3.51
				c0,1,0.38,1.93,1.06,2.61c3.8,3.65,11.28,7.58,20.82,7.58c9.21,0,18.54-5.79,18.54-16.87c0-13.61-12.15-22-21.91-28.75
				l-1.32-0.92c-11.44-7.9-20.19-14.67-20.19-23.78c0-6.46,5.06-11.52,11.52-11.52c5.64,0,9.85,4.32,9.85,8.18
				c0,1.84,1.67,3.51,3.51,3.51s3.51-1.67,3.51-3.51c0-9.09-8.72-15.2-16.87-15.2c-10.22,0-18.54,8.32-18.54,18.54
				c0,13.61,12.15,22,21.91,28.75l1.33,0.92c11.44,7.9,20.18,14.67,20.18,23.78c0,5.98-4.52,9.85-11.52,9.85
				c-7.16,0-13.03-3.09-15.88-5.74C21.15,81.01,20.15,80.63,19.32,80.63z"/>
		</g>
		<g>
			<path class="st3" d="M137.89,80.8c0,1.5-0.67,3.01-2,4.01c-7.35,5.51-18.2,11.02-31.4,11.02c-21.54,0-33.4-16.53-33.4-36.74
				c0-24.88,16.03-53.44,43.42-53.44c4.68,0,16.7,1.5,16.7,8.35c0,2.84-2.34,5.01-5.01,5.01c-1,0-2.17-0.33-3.01-1
				c-2.17-1.67-5.18-2.34-8.68-2.34c-19.37,0-33.4,21.54-33.4,43.42c0,16.53,8.18,26.72,23.38,26.72c10.19,0,19.37-4.51,25.39-9.02
				c0.83-0.67,2-1,3.01-1C135.55,75.79,137.89,77.96,137.89,80.8z"/>
			<path class="st3" d="M104.49,97.33c-20.88,0-34.9-15.37-34.9-38.24c0-26.42,17.17-54.94,44.92-54.94c6.3,0,18.2,2.06,18.2,9.85
				c0,3.59-2.92,6.51-6.51,6.51c-1.43,0-2.9-0.5-3.94-1.33c-1.73-1.33-4.34-2.01-7.75-2.01c-19.08,0-31.9,21.68-31.9,41.92
				c0,16.03,7.98,25.22,21.88,25.22c11.61,0,20.99-6.1,24.49-8.72c1-0.8,2.48-1.3,3.91-1.3c3.59,0,6.51,2.92,6.51,6.51
				c0,2.07-0.95,3.97-2.6,5.21C129.9,91.17,118.71,97.33,104.49,97.33z M114.51,7.14c-25.89,0-41.92,26.96-41.92,51.94
				c0,17.54,9.86,35.24,31.9,35.24c13.39,0,23.98-5.83,30.5-10.72c0.89-0.67,1.4-1.69,1.4-2.81c0-1.94-1.57-3.51-3.51-3.51
				c-0.75,0-1.56,0.26-2.07,0.67c-3.77,2.83-13.81,9.35-26.32,9.35c-15.58,0-24.88-10.55-24.88-28.22
				c0-21.69,14.02-44.92,34.9-44.92c4.14,0,7.28,0.87,9.6,2.65c0.53,0.43,1.35,0.69,2.09,0.69c1.94,0,3.51-1.57,3.51-3.51
				C129.71,8.82,119.47,7.14,114.51,7.14z"/>
		</g>
		<g>
			<path class="st3" d="M223.06,95.83c-1.17,0-2.34-0.33-3.34-1.17c-12.19-10.35-22.38-22.38-44.09-25.55
				c-2.51-0.33-4.34-2.5-4.34-5.01c0-2.84,2.34-4.68,4.34-5.01c16.53-2.51,27.39-9.52,27.39-18.37c0-12.69-13.19-21.71-28.39-21.71
				c-6.35,0-10.02,3.34-10.02,8.35c0,28.56-0.83,50.27-3.34,64.3c-0.5,2.34-2.67,4.17-5.01,4.17c-3.01,0-5.01-2.5-5.01-5.01v-0.84
				c2.17-12.69,3.34-34.4,3.34-62.63c0-11.69,9.69-18.37,20.04-18.37c18.2,0,38.41,11.02,38.41,31.73c0,11.52-8.35,19.04-18.2,23.38
				c14.03,6.01,23.38,15.87,31.56,22.88c1.17,1,1.67,2.34,1.67,3.84C228.07,93.66,225.73,95.83,223.06,95.83z"/>
			<path class="st3" d="M223.06,97.33c-1.62,0-3.11-0.52-4.3-1.52c-1.89-1.61-3.75-3.26-5.54-4.87
				c-10.21-9.12-19.86-17.73-37.8-20.35c-3.2-0.43-5.63-3.22-5.63-6.49c0-3.61,2.88-6.04,5.6-6.49
				c15.89-2.41,26.14-9.04,26.14-16.89c0-11.33-11.81-20.21-26.89-20.21c-5.34,0-8.52,2.56-8.52,6.85c0,31.62-1.04,51.54-3.36,64.56
				c-0.66,3.11-3.45,5.41-6.49,5.41c-4.02,0-6.51-3.38-6.51-6.51l0.02-1.09c2.17-12.69,3.32-34.26,3.32-62.37
				c0-13.05,10.84-19.87,21.54-19.87c19.35,0,39.91,11.65,39.91,33.23c0,9.67-5.71,17.87-16.17,23.35
				c10.18,4.95,17.71,11.7,24.42,17.72c1.6,1.43,3.11,2.79,4.59,4.06c1.44,1.23,2.19,2.95,2.19,4.98
				C229.57,94.41,226.65,97.33,223.06,97.33z M174.63,17.5c16.76,0,29.89,10.2,29.89,23.21c0,9.57-10.98,17.17-28.66,19.85
				c-1.26,0.21-3.07,1.45-3.07,3.53c0,1.78,1.31,3.29,3.04,3.52c18.85,2.76,29.29,12.08,39.38,21.09c1.78,1.59,3.63,3.24,5.48,4.81
				c0.64,0.54,1.44,0.81,2.37,0.81c1.94,0,3.51-1.57,3.51-3.51c0-1.16-0.38-2.04-1.15-2.7c-1.5-1.29-3.03-2.65-4.64-4.1
				c-7.17-6.43-15.3-13.72-26.54-18.54l-3.17-1.36l3.16-1.39c7.9-3.48,17.31-10.12,17.31-22.01c0-19.64-19.02-30.23-36.91-30.23
				c-9.21,0-18.54,5.79-18.54,16.87c0,28.19-1.15,49.88-3.34,62.75v0.71c0,1.69,1.34,3.51,3.51,3.51c1.63,0,3.18-1.31,3.54-2.99
				c2.28-12.79,3.31-32.54,3.31-63.98C163.11,21.37,167.63,17.5,174.63,17.5z"/>
		</g>
		<g>
			<path class="st3" d="M303.22,105.85c-1.84,0-3.67-1.17-4.51-2.84c-6.18-12.36-10.69-24.38-13.53-34.07
				c-1.67,0-3.17,0.17-4.84,0.17c-10.86,0-19.71-1.34-25.05-2.34c-2.51,12.19-3.84,22.38-3.84,24.05c0,2.67-2.34,5.01-5.01,5.01
				c-2.67,0-5.01-2.34-5.01-5.01c0-6.35,6.35-47.6,16.37-68.97c2-4.18,5.01-12.86,14.03-12.86c10.35,0,12.36,11.52,12.86,13.86
				c2.17,8.35,4.01,20.54,8.02,35.57c3.84-0.5,6.35-1,6.35-1h0.83c2.51,0,5.01,2,5.01,5.01c0,4.68-3.67,5.01-9.35,5.68
				c2.84,8.85,6.85,19.71,12.19,30.56c0.33,0.67,0.5,1.5,0.5,2.17C308.23,103.34,306.22,105.85,303.22,105.85z M282.51,59.09
				c-3.84-14.7-5.68-26.55-7.52-33.9c-1.17-4.34-2.51-6.18-3.17-6.18c-1,0-2.34,1.34-5.01,7.18c-3.67,7.68-6.85,19.37-9.35,30.73
				c4.84,1,13.03,2.17,22.88,2.17H282.51z"/>
			<path class="st3" d="M303.22,107.35c-2.4,0-4.75-1.47-5.85-3.67c-5.37-10.75-10.07-22.5-13.3-33.22
				c-0.41,0.02-0.82,0.04-1.23,0.06c-0.82,0.04-1.64,0.09-2.5,0.09c-7.95,0-15.98-0.71-23.87-2.1c-2.29,11.41-3.52,20.86-3.52,22.31
				c0,3.53-2.98,6.51-6.51,6.51s-6.51-2.98-6.51-6.51c0-6.88,6.39-48.03,16.51-69.61c0.19-0.4,0.39-0.83,0.6-1.3
				c2.12-4.65,5.67-12.43,14.79-12.43c5.11,0,11.73,2.56,14.27,14.76l0.06,0.28c0.89,3.43,1.73,7.52,2.7,12.26
				c1.32,6.45,2.81,13.71,4.96,21.96c3-0.42,4.92-0.8,4.94-0.81l0.29-0.03h0.83c3.13,0,6.51,2.49,6.51,6.51
				c0,5.38-3.97,6.33-8.86,6.95c3.39,10.32,7.27,19.94,11.55,28.63c0.41,0.82,0.66,1.88,0.66,2.83
				C309.73,103.97,307.24,107.35,303.22,107.35z M285.18,67.44h1.12l0.32,1.08c3.18,10.85,7.95,22.86,13.43,33.82
				c0.58,1.17,1.91,2.01,3.17,2.01c2.17,0,3.51-1.82,3.51-3.51c0-0.5-0.13-1.08-0.34-1.5c-4.58-9.31-8.71-19.66-12.28-30.78
				l-0.56-1.73l2.15-0.25c6.23-0.73,7.68-1.2,7.68-4.15c0-2.17-1.82-3.51-3.51-3.51h-0.69c-0.6,0.12-2.93,0.55-6.3,0.99l-1.3,0.17
				l-0.34-1.27c-2.36-8.86-3.94-16.59-5.34-23.41c-0.96-4.7-1.79-8.76-2.68-12.17l-0.08-0.36c-1.71-8.21-5.52-12.38-11.33-12.38
				c-7.19,0-10.12,6.42-12.06,10.67c-0.22,0.48-0.42,0.93-0.62,1.34c-9.74,20.79-16.22,61.8-16.22,68.33c0,1.84,1.67,3.51,3.51,3.51
				s3.51-1.67,3.51-3.51c0-1.87,1.37-12.16,3.87-24.35l0.3-1.44l1.45,0.27c8.18,1.53,16.52,2.31,24.77,2.31
				c0.81,0,1.58-0.04,2.34-0.08C283.5,67.48,284.32,67.44,285.18,67.44z M284.45,60.59h-4.11c-11.31,0-19.98-1.54-23.18-2.2
				l-1.49-0.31l0.33-1.48c3.06-13.88,6.25-24.32,9.46-31.05c2.74-6,4.35-8.03,6.36-8.03c2.2,0,3.73,3.96,4.62,7.29
				c0.73,2.92,1.45,6.48,2.28,10.61c1.29,6.4,2.9,14.36,5.24,23.31L284.45,60.59z M259.26,55.74c3.88,0.72,11.49,1.85,21.08,1.85
				h0.24c-2.1-8.26-3.58-15.61-4.79-21.59c-0.83-4.09-1.54-7.63-2.24-10.45c-0.74-2.73-1.49-4.2-1.92-4.82
				c-0.48,0.48-1.53,1.9-3.44,6.08C265.16,33.11,262.17,42.83,259.26,55.74z"/>
		</g>
		<g>
			<path class="st3" d="M321.58,20.67c0-1.67,0.83-3.17,2.34-4.18c0.33-0.17,19.37-12.53,44.42-12.53
				c15.03,0,28.39,8.35,28.39,25.05c0,15.36-14.53,26.39-31.9,31.56c-0.5,0.17-1,0.17-1.5,0.17c-2.5,0-5.01-2-5.01-5.01
				c0-2.17,1.34-4.17,3.51-4.84c16.03-4.84,24.88-13.86,24.88-21.88c0-10.02-6.68-15.03-18.37-15.03
				c-24.55,0-37.41,11.69-41.75,11.69C324.09,25.68,321.58,23.68,321.58,20.67z M343.3,97.5c-6.35,0-6.68-11.36-6.68-18.2v-1.84
				c0-15.7,3.51-34.4,8.68-49.94c0.67-2,2.51-3.51,4.68-3.51c3.01,0,5.01,2.5,5.01,5.01c0,0.5-0.17,1-0.33,1.5
				c-4.84,14.53-8.02,32.57-8.02,46.93c0,4.84,0.5,9.69,1.5,13.7c0.17,0.33,0.17,1,0.17,1.34C348.31,94.99,346.3,97.5,343.3,97.5z"
				/>
			<path class="st3" d="M343.3,99c-8.18,0-8.18-13.81-8.18-19.7v-1.84c0-15.11,3.27-33.95,8.76-50.41c0.9-2.71,3.35-4.53,6.1-4.53
				c4.02,0,6.51,3.38,6.51,6.51c0,0.74-0.22,1.4-0.41,1.98c-4.9,14.69-7.94,32.49-7.94,46.45c0,4.78,0.51,9.47,1.43,13.22
				c0.22,0.56,0.24,1.23,0.24,1.81C349.81,95.62,347.32,99,343.3,99z M349.98,25.51c-1.45,0-2.76,1-3.25,2.48
				c-5.39,16.17-8.61,34.66-8.61,49.46v1.84c0,4.57,0,16.7,5.18,16.7c2.17,0,3.51-1.82,3.51-3.51c0-0.39-0.01-0.64-0.04-0.75
				l-0.08-0.22c-1-4-1.55-8.99-1.55-14.06c0-14.26,3.1-32.43,8.09-47.4c0.13-0.4,0.26-0.77,0.26-1.03
				C353.49,27.34,352.14,25.51,349.98,25.51z M363.34,62.26c-3.13,0-6.51-2.49-6.51-6.51c0-2.91,1.83-5.44,4.57-6.28
				c16.46-4.97,23.83-13.85,23.83-20.44c0-8.98-5.68-13.53-16.87-13.53c-16.93,0-28.18,5.67-34.9,9.06
				c-3.14,1.58-5.21,2.63-6.85,2.63c-3.13,0-6.51-2.49-6.51-6.51c0-2.17,1.1-4.15,3.01-5.42l0.22-0.13
				c4.86-2.97,22.49-12.64,45.04-12.64c14.88,0,29.89,8.21,29.89,26.55c0,14.51-12.33,26.85-32.97,33
				C364.58,62.26,363.89,62.26,363.34,62.26z M368.35,12.49c12.81,0,19.87,5.87,19.87,16.53c0,9.4-10.19,18.55-25.95,23.31
				c-1.46,0.45-2.44,1.82-2.44,3.41c0,2.17,1.82,3.51,3.51,3.51c0.41,0,0.76,0,1.03-0.09c19.35-5.77,30.87-17.03,30.87-30.14
				c0-16.27-13.51-23.55-26.89-23.55c-21.77,0-38.78,9.34-43.48,12.21c-0.06,0.03-0.1,0.06-0.14,0.08
				c-1.06,0.72-1.64,1.75-1.64,2.91c0,2.17,1.82,3.51,3.51,3.51c0.93,0,3.05-1.07,5.5-2.31C339.06,18.37,350.71,12.49,368.35,12.49z
				"/>
		</g>
		<g>
			<path class="st3" d="M425.13,85.81c3.34,0,8.35,1.67,8.35,5.01c0,2.84-2.17,5.01-5.01,5.01c-3.34,0-8.35-1.67-8.35-5.01
				C420.12,87.98,422.29,85.81,425.13,85.81z"/>
			<path class="st3" d="M428.47,97.33c-3.97,0-9.85-2.07-9.85-6.51c0-3.65,2.86-6.51,6.51-6.51c3.97,0,9.85,2.07,9.85,6.51
				C434.98,94.47,432.12,97.33,428.47,97.33z M425.13,87.31c-2,0-3.51,1.51-3.51,3.51c0,2.14,4.06,3.51,6.85,3.51
				c2,0,3.51-1.51,3.51-3.51C431.98,88.67,427.92,87.31,425.13,87.31z"/>
		</g>
	</g>
</g>
</svg>
