<svg id="Layer_1" data-name="Layer 1" xmlns="http://www.w3.org/2000/svg" viewBox="0 0 518.99 127"><defs><style>.cls-1{fill:#fff;stroke:#fff;stroke-miterlimit:10;stroke-width:5px;}</style></defs><title>scraplogo</title><path class="cls-1" d="M135.6,396.16a6.88,6.88,0,0,1,4.2,1.6,27.5,27.5,0,0,0,17.8,6.4c7.6,0,12-4,12-10,0-10-9.8-17.6-23.4-27-12.4-8.6-28.6-19-28.6-37a24.07,24.07,0,0,1,24-24c10.4,0,22,7.8,22,20a6,6,0,0,1-12,0c0-3.8-4.4-8-10-8a11.79,11.79,0,0,0-12,12c0,10,9.8,17.6,23.4,27,12.4,8.6,28.6,19,28.6,37,0,14-11.6,22-24,22-11.6,0-21-4.6-26.2-9.6a6.08,6.08,0,0,1,4.2-10.4Z" transform="translate(-115.1 -303.66)"/><path class="cls-1" d="M277.6,398.16a6,6,0,0,1-2.4,4.8c-8.8,6.6-21.8,13.2-37.6,13.2-25.8,0-40-19.8-40-44,0-29.8,19.2-64,52-64,5.6,0,20,1.8,20,10A6,6,0,0,1,260,323c-2.6-2-6.2-2.8-10.4-2.8-23.2,0-40,25.8-40,52,0,19.8,9.8,32,28,32,12.2,0,23.2-5.4,30.4-10.8a6,6,0,0,1,9.6,4.8Z" transform="translate(-115.1 -303.66)"/><path class="cls-1" d="M379.59,416.16a6.11,6.11,0,0,1-4-1.4c-14.6-12.4-26.8-26.8-52.8-30.6a6,6,0,0,1-5.19-6,6.25,6.25,0,0,1,5.19-6c19.8-3,32.8-11.4,32.8-22,0-15.2-15.8-26-34-26-7.6,0-12,4-12,10,0,34.2-1,60.2-4,77a6.38,6.38,0,0,1-6,5,6,6,0,0,1-6-6v-1c2.6-15.2,4-41.2,4-75,0-14,11.6-22,24-22,21.8,0,46,13.2,46,38,0,13.8-10,22.8-21.8,28,16.8,7.2,28,19,37.8,27.4a5.79,5.79,0,0,1,2,4.6A6,6,0,0,1,379.59,416.16Z" transform="translate(-115.1 -303.66)"/><path class="cls-1" d="M475.59,428.16a6.26,6.26,0,0,1-5.4-3.4A252.24,252.24,0,0,1,454,384c-2,0-3.8.2-5.8.2a163.39,163.39,0,0,1-30-2.8c-3,14.6-4.6,26.8-4.6,28.8a6,6,0,0,1-12,0c0-7.6,7.6-57,19.6-82.6,2.4-5,6-15.4,16.8-15.4,12.4,0,14.8,13.8,15.4,16.6,2.6,10,4.8,24.6,9.6,42.6,4.6-.6,7.6-1.2,7.6-1.2h1a6,6,0,0,1,6,6c0,5.6-4.4,6-11.2,6.8a272.06,272.06,0,0,0,14.6,36.6,6.16,6.16,0,0,1,.6,2.6A6,6,0,0,1,475.59,428.16Zm-24.8-56c-4.6-17.6-6.8-31.8-9-40.6-1.4-5.2-3-7.4-3.8-7.4-1.2,0-2.8,1.6-6,8.6-4.4,9.2-8.2,23.2-11.2,36.8a140,140,0,0,0,27.4,2.6Z" transform="translate(-115.1 -303.66)"/><path class="cls-1" d="M497.59,326.16a6,6,0,0,1,2.8-5c.4-.2,23.2-15,53.2-15,18,0,34,10,34,30,0,18.4-17.4,31.6-38.2,37.8a5.54,5.54,0,0,1-1.8.2,6,6,0,0,1-1.8-11.8c19.2-5.8,29.8-16.6,29.8-26.2,0-12-8-18-22-18-29.4,0-44.8,14-50,14A6,6,0,0,1,497.59,326.16Zm26,92c-7.6,0-8-13.6-8-21.8v-2.2c0-18.8,4.2-41.2,10.4-59.8a5.93,5.93,0,0,1,11.6,1.8,5.84,5.84,0,0,1-.4,1.8c-5.8,17.4-9.6,39-9.6,56.2a69.83,69.83,0,0,0,1.8,16.4,4.4,4.4,0,0,1,.2,1.6A6,6,0,0,1,523.59,418.16Z" transform="translate(-115.1 -303.66)"/><path class="cls-1" d="M621.59,404.16c4,0,10,2,10,6a5.89,5.89,0,0,1-6,6c-4,0-10-2-10-6A5.89,5.89,0,0,1,621.59,404.16Z" transform="translate(-115.1 -303.66)"/></svg>