<?xml version="1.0" encoding="UTF-8" standalone="no"?><!-- Generator: Gravit.io --><svg xmlns="http://www.w3.org/2000/svg" xmlns:xlink="http://www.w3.org/1999/xlink" style="isolation:isolate" viewBox="0 0 300 300" width="300pt" height="300pt"><defs><clipPath id="_clipPath_VDciKy06PNS0Ifg65q8eJWJPnHqNcpv3"><rect width="300" height="300"/></clipPath></defs><g clip-path="url(#_clipPath_VDciKy06PNS0Ifg65q8eJWJPnHqNcpv3)"><rect width="300" height="300" style="fill:rgb(0,0,0)" fill-opacity="0"/><path d=" M 208.388 183.78 C 212.71 177.604 216.337 170.946 219.188 163.925 C 224.071 151.857 226.58 138.956 226.572 125.934 C 226.58 112.912 224.071 100.019 219.188 87.943 C 214.109 75.446 206.571 64.091 197.021 54.55 C 187.489 45.001 176.135 37.463 163.629 32.392 C 151.561 27.501 138.659 25 125.638 25 C 112.616 25 99.723 27.501 87.647 32.392 C 75.149 37.463 63.795 45.001 54.254 54.55 C 44.705 64.091 37.167 75.446 32.095 87.943 C 27.205 100.019 24.704 112.912 24.704 125.934 C 24.704 138.956 27.205 151.857 32.095 163.934 C 37.175 176.431 44.705 187.786 54.254 197.318 L 54.254 197.318 L 54.254 197.318 C 63.795 206.867 75.149 214.405 87.647 219.485 C 99.723 224.367 112.616 226.877 125.638 226.868 C 138.659 226.877 151.561 224.367 163.629 219.485 C 170.914 216.526 177.808 212.732 184.179 208.193 L 245.959 269.973 C 245.959 269.981 245.967 269.981 245.976 269.99 C 249.198 273.195 253.564 275 258.11 275 C 262.664 275 267.047 273.195 270.269 269.973 C 273.492 266.75 275.296 262.368 275.296 257.813 C 275.296 253.267 273.492 248.902 270.287 245.679 L 270.287 245.679 C 270.278 245.671 270.278 245.662 270.269 245.662 L 208.388 183.78 Z  M 74.564 175.212 C 67.858 168.513 62.557 160.533 58.989 151.744 C 55.56 143.261 53.798 134.189 53.798 125.036 C 53.798 115.883 55.56 106.811 58.989 98.328 C 62.557 89.54 67.858 81.559 74.564 74.86 C 81.263 68.154 89.243 62.854 98.032 59.286 C 106.514 55.856 115.587 54.094 124.74 54.094 C 133.892 54.094 142.965 55.856 151.455 59.286 C 160.236 62.854 168.216 68.154 174.915 74.86 C 181.621 81.559 186.922 89.54 190.49 98.328 C 193.927 106.811 195.689 115.883 195.682 125.036 C 195.689 134.189 193.927 143.261 190.49 151.751 C 186.922 160.533 181.621 168.513 174.915 175.212 C 168.216 181.918 160.236 187.219 151.455 190.786 C 142.965 194.223 133.892 195.985 124.74 195.978 C 115.587 195.985 106.514 194.223 98.032 190.786 C 89.243 187.219 81.263 181.918 74.564 175.212 L 74.564 175.212 L 74.564 175.212 Z  M 258.11 257.813 C 258.101 257.813 258.101 257.813 258.101 257.805 L 202.364 202.068 L 258.101 257.805 C 258.11 257.805 258.11 257.805 258.11 257.813 L 258.11 257.813 Z  M 202.364 202.068 L 197.317 197.021 L 187.377 187.081 L 187.377 187.081 L 187.377 187.081 L 202.364 202.068 L 202.364 202.068 Z " fill-rule="evenodd" fill="rgb(0,0,0)"/></g></svg>