<?xml version="1.0" encoding="UTF-8" standalone="no"?><!-- Generator: Gravit.io --><svg xmlns="http://www.w3.org/2000/svg" xmlns:xlink="http://www.w3.org/1999/xlink" style="isolation:isolate" viewBox="0 0 300 300" width="300" height="300"><defs><clipPath id="_clipPath_JN38pj3qqQ0UxaXNTP06Sre4Ez2FoHUu"><rect width="300" height="300"/></clipPath></defs><g clip-path="url(#_clipPath_JN38pj3qqQ0UxaXNTP06Sre4Ez2FoHUu)"><rect width="300" height="300" style="fill:rgb(0,0,0)" fill-opacity="0"/><path d=" M 205.397 193.089 C 212.309 184.897 217.9 175.652 221.948 165.685 C 226.892 153.464 229.434 140.399 229.425 127.213 C 229.434 114.026 226.892 100.97 221.948 88.74 C 216.804 76.085 209.171 64.586 199.5 54.925 C 189.848 45.255 178.349 37.621 165.685 32.486 C 153.464 27.533 140.399 25 127.213 25 C 114.026 25 100.97 27.533 88.74 32.486 C 76.085 37.621 64.586 45.255 54.925 54.925 C 45.255 64.586 37.621 76.085 32.486 88.74 C 27.533 100.97 25 114.026 25 127.213 C 25 140.399 27.533 153.464 32.486 165.694 C 37.63 178.349 45.255 189.848 54.925 199.5 L 54.925 199.5 C 64.586 209.171 76.085 216.804 88.74 221.948 C 100.97 226.892 114.026 229.434 127.213 229.425 C 140.399 229.434 153.464 226.892 165.685 221.948 C 175.652 217.9 184.897 212.309 193.089 205.397 L 260.142 272.458 C 261.778 274.086 263.989 275 266.296 275 C 268.611 275 270.822 274.086 272.458 272.458 C 274.086 270.822 275 268.611 275 266.296 C 275 263.989 274.086 261.778 272.458 260.142 L 205.397 193.089 Z  M 67.232 187.193 C 59.216 179.185 52.879 169.645 48.614 159.139 C 44.515 148.999 42.408 138.154 42.408 127.213 C 42.408 116.271 44.515 105.426 48.614 95.286 C 52.879 84.78 59.216 75.24 67.232 67.232 C 75.24 59.216 84.78 52.879 95.286 48.614 C 105.426 44.515 116.271 42.408 127.213 42.408 C 138.154 42.408 148.999 44.515 159.148 48.614 C 169.645 52.879 179.185 59.216 187.193 67.232 C 195.209 75.24 201.546 84.78 205.811 95.286 C 209.919 105.426 212.026 116.271 212.017 127.213 C 212.026 138.154 209.919 148.999 205.811 159.148 C 201.546 169.645 195.209 179.185 187.193 187.193 C 179.185 195.209 169.645 201.546 159.148 205.811 C 148.999 209.919 138.154 212.026 127.213 212.017 C 116.271 212.026 105.426 209.919 95.286 205.811 C 84.78 201.546 75.24 195.209 67.232 187.193 L 67.232 187.193 Z " fill-rule="evenodd" fill="rgb(0,0,0)"/></g></svg>