<?xml version="1.0" encoding="UTF-8" standalone="no"?><!-- Generator: Gravit.io --><svg xmlns="http://www.w3.org/2000/svg" xmlns:xlink="http://www.w3.org/1999/xlink" style="isolation:isolate" viewBox="0 0 300 300" width="300" height="300"><defs><clipPath id="_clipPath_bQIzWMJKNTuAKbfc7cFBzFMXGyv7h04h"><rect width="300" height="300"/></clipPath></defs><g clip-path="url(#_clipPath_bQIzWMJKNTuAKbfc7cFBzFMXGyv7h04h)"><rect width="300" height="300" style="fill:rgb(0,0,0)" fill-opacity="0"/><path d=" M 240.16 137.197 L 113.945 263.412 C 113.917 263.431 113.898 263.46 113.869 263.479 C 112.462 264.857 110.913 266.083 109.24 267.138 C 107.633 268.165 105.941 269.068 104.192 269.838 C 102.443 270.608 100.637 271.245 98.793 271.748 C 96.892 272.271 94.943 272.594 92.976 272.699 C 92.938 272.709 92.909 272.709 92.871 272.709 L 43.099 274.99 L 42.596 274.999 C 42.548 274.999 42.501 274.999 42.453 274.999 C 37.814 275.037 33.347 273.222 30.048 269.952 C 26.778 266.653 24.963 262.186 25.001 257.547 C 25.001 257.499 25.001 257.452 25.001 257.404 L 25.01 256.901 L 27.291 207.129 C 27.291 207.091 27.291 207.062 27.301 207.024 C 27.406 205.057 27.729 203.108 28.252 201.207 C 28.755 199.363 29.392 197.557 30.162 195.808 C 30.932 194.059 31.835 192.367 32.862 190.76 C 33.917 189.087 35.143 187.538 36.521 186.131 C 36.54 186.102 36.569 186.083 36.588 186.055 L 163.297 59.346 L 163.297 59.346 L 177 73 L 240.16 137.197 Z  M 254.484 122.87 L 267.747 109.601 C 267.747 109.601 267.757 109.601 267.757 109.601 C 272.395 104.962 275 98.66 275 92.091 C 275 85.532 272.395 79.23 267.757 74.591 C 267.757 74.591 267.747 74.591 267.747 74.591 L 225.409 32.253 L 225.409 32.253 C 225.409 32.253 225.409 32.243 225.409 32.243 C 220.77 27.605 214.468 25 207.909 25 C 201.34 25 195.038 27.605 190.399 32.243 C 190.399 32.243 190.399 32.253 190.399 32.253 L 175.948 46.697 L 177 45.694 L 254.484 122.87 Z " fill-rule="evenodd" fill="rgb(0,0,0)"/></g></svg>