<?xml version="1.0" encoding="UTF-8" standalone="no"?><!-- Generator: Gravit.io --><svg xmlns="http://www.w3.org/2000/svg" xmlns:xlink="http://www.w3.org/1999/xlink" style="isolation:isolate" viewBox="0 0 300 300" width="300pt" height="300pt"><defs><clipPath id="_clipPath_4PaCCCvnhUt9rcQyWXk9iPaoSjv6Rj8M"><rect width="300" height="300"/></clipPath></defs><g clip-path="url(#_clipPath_4PaCCCvnhUt9rcQyWXk9iPaoSjv6Rj8M)"><rect width="300" height="300" style="fill:rgb(0,0,0)" fill-opacity="0"/><path d=" M 170.247 52.395 L 247.605 129.753 L 113.945 263.412 C 113.917 263.431 113.898 263.46 113.869 263.479 C 112.462 264.857 110.913 266.083 109.24 267.138 C 107.633 268.165 105.941 269.068 104.192 269.838 C 102.443 270.608 100.637 271.245 98.793 271.748 C 96.892 272.271 94.943 272.594 92.976 272.699 C 92.938 272.709 92.909 272.709 92.871 272.709 L 43.099 274.99 L 42.596 274.999 C 42.548 274.999 42.501 274.999 42.453 274.999 C 37.814 275.037 33.347 273.222 30.048 269.952 C 26.778 266.653 24.963 262.186 25.001 257.547 C 25.001 257.499 25.001 257.452 25.001 257.404 L 25.01 256.901 L 27.291 207.129 C 27.291 207.091 27.291 207.062 27.301 207.024 C 27.406 205.057 27.729 203.108 28.252 201.207 C 28.755 199.363 29.392 197.557 30.162 195.808 C 30.932 194.059 31.835 192.367 32.862 190.76 C 33.917 189.087 35.143 187.538 36.521 186.131 C 36.54 186.102 36.569 186.083 36.588 186.055 L 170.247 52.395 Z  M 44.088 255.912 L 46.284 208.06 C 46.322 207.433 46.426 206.825 46.597 206.216 C 46.845 205.285 47.168 204.372 47.558 203.488 C 47.947 202.595 48.404 201.739 48.926 200.922 C 49.259 200.399 49.639 199.905 50.077 199.458 L 176.616 72.918 L 227.082 123.384 L 100.542 249.923 C 100.095 250.361 99.601 250.741 99.078 251.074 C 98.261 251.596 97.405 252.053 96.512 252.442 C 95.628 252.832 94.715 253.155 93.784 253.403 C 93.175 253.574 92.567 253.678 91.94 253.716 L 44.088 255.912 Z  M 225.409 32.253 L 267.747 74.591 C 267.747 74.591 267.757 74.591 267.757 74.591 C 272.395 79.23 275 85.532 275 92.091 C 275 98.66 272.395 104.962 267.757 109.601 C 267.757 109.601 267.747 109.601 267.747 109.601 L 247.605 129.753 L 170.247 52.395 L 190.399 32.253 C 190.399 32.253 190.399 32.243 190.399 32.243 C 195.038 27.605 201.34 25 207.909 25 C 214.468 25 220.77 27.605 225.409 32.243 C 225.409 32.243 225.409 32.253 225.409 32.253 Z  M 211.968 45.694 L 254.306 88.032 C 255.38 89.106 255.989 90.57 255.989 92.091 C 255.989 93.622 255.38 95.085 254.306 96.16 L 240.951 109.515 L 190.485 59.049 L 203.84 45.694 C 204.915 44.62 206.378 44.011 207.909 44.011 C 209.43 44.011 210.894 44.62 211.968 45.694 Z " fill-rule="evenodd" fill="rgb(0,0,0)"/></g></svg>