<?xml version="1.0" encoding="UTF-8" standalone="no"?><!-- Generator: Gravit.io --><svg xmlns="http://www.w3.org/2000/svg" xmlns:xlink="http://www.w3.org/1999/xlink" style="isolation:isolate" viewBox="0 0 300 300" width="300pt" height="300pt"><defs><clipPath id="_clipPath_LRApNfgg1clRVoSlOgEs4Efiw6c0ofGz"><rect width="300" height="300"/></clipPath></defs><g clip-path="url(#_clipPath_LRApNfgg1clRVoSlOgEs4Efiw6c0ofGz)"><rect width="300" height="300" style="fill:rgb(0,0,0)" fill-opacity="0"/><path d=" M 260.45 70.733 L 275.208 70.733 C 289.221 70.733 300.598 59.355 300.598 45.342 L 300.598 44.651 C 300.598 30.637 289.221 19.26 275.208 19.26 L 25.391 19.26 C 11.377 19.26 0 30.637 0 44.651 L 0 45.342 C 0 59.355 11.377 70.733 25.391 70.733 L 47.416 70.733 L 47.416 51.173 L 260.45 51.173 L 260.45 70.733 Z " fill-rule="evenodd" fill="rgb(0,0,0)"/><path d=" M 32.942 30.584 L 267.656 30.584 L 267.656 231.326 C 267.656 244.431 262.447 257.001 253.182 266.266 C 243.917 275.531 231.348 280.74 218.243 280.74 L 82.356 280.74 C 69.251 280.74 56.681 275.531 47.416 266.266 C 38.151 257.001 32.942 244.431 32.942 231.326 L 32.942 30.584 Z  M 53.531 51.173 L 247.067 51.173 L 247.067 231.326 C 247.067 238.965 244.03 246.305 238.626 251.709 C 233.221 257.114 225.881 260.151 218.243 260.151 L 82.356 260.151 C 74.717 260.151 67.377 257.114 61.973 251.709 C 56.568 246.305 53.531 238.965 53.531 231.326 L 53.531 51.173 Z " fill-rule="evenodd" fill="rgb(0,0,0)"/><path d=" M 149.784 145.367 C 152.513 145.367 155.127 146.448 157.063 148.384 C 158.988 150.309 160.079 152.934 160.079 155.662 C 160.079 158.39 158.988 161.015 157.063 162.94 C 155.127 164.876 152.513 165.956 149.784 165.956 C 139.511 165.956 129.659 161.87 122.391 154.612 C 115.133 147.354 111.046 137.492 111.046 127.229 C 111.046 116.955 115.133 107.093 122.391 99.835 C 129.659 92.577 139.511 88.491 149.784 88.491 C 157.68 88.491 165.391 90.91 171.887 95.419 C 178.372 99.928 183.324 106.31 186.083 113.712 C 187.04 116.265 186.937 119.106 185.805 121.587 C 184.662 124.068 182.593 126.004 180.03 126.951 C 177.477 127.908 174.646 127.805 172.154 126.662 C 169.673 125.53 167.748 123.461 166.791 120.898 C 165.504 117.428 163.178 114.433 160.141 112.322 C 157.094 110.212 153.48 109.079 149.784 109.079 C 144.967 109.079 140.355 110.994 136.947 114.391 C 133.55 117.799 131.635 122.411 131.635 127.218 C 131.635 132.036 133.55 136.648 136.947 140.056 C 140.355 143.453 144.967 145.367 149.784 145.367 Z " fill="rgb(0,0,0)"/><path d=" M 150.814 165.956 C 148.086 165.956 145.471 164.876 143.536 162.94 C 141.611 161.015 140.519 158.39 140.519 155.662 C 140.519 152.934 141.611 150.309 143.536 148.384 C 145.471 146.448 148.086 145.367 150.814 145.367 C 161.088 145.367 170.94 149.454 178.208 156.712 C 185.465 163.97 189.552 173.832 189.552 184.095 C 189.552 194.369 185.465 204.231 178.208 211.489 C 170.94 218.746 161.088 222.833 150.814 222.833 C 142.918 222.833 135.208 220.414 128.712 215.905 C 122.226 211.396 117.275 205.014 114.516 197.612 C 113.558 195.059 113.661 192.218 114.794 189.737 C 115.936 187.256 118.005 185.32 120.569 184.373 C 123.122 183.416 125.953 183.519 128.444 184.661 C 130.925 185.794 132.85 187.863 133.807 190.426 C 135.094 193.896 137.421 196.891 140.458 199.002 C 143.505 201.112 147.118 202.244 150.814 202.244 C 155.632 202.244 160.244 200.33 163.651 196.932 C 167.048 193.525 168.963 188.913 168.963 184.106 C 168.963 179.288 167.048 174.676 163.651 171.268 C 160.244 167.871 155.632 165.956 150.814 165.956 Z " fill="rgb(0,0,0)"/><path d=" M 160.213 236.607 C 160.213 239.335 159.132 241.95 157.197 243.886 C 155.271 245.811 152.646 246.902 149.918 246.902 C 147.19 246.902 144.575 245.811 142.64 243.886 C 140.715 241.95 139.624 239.335 139.624 236.607 L 139.624 74.717 C 139.624 71.989 140.715 69.374 142.64 67.438 C 144.575 65.513 147.19 64.422 149.918 64.422 C 152.646 64.422 155.271 65.513 157.197 67.438 C 159.132 69.374 160.213 71.989 160.213 74.717 L 160.213 236.607 Z " fill="rgb(0,0,0)"/></g></svg>