<?xml version="1.0" encoding="UTF-8" standalone="no"?><!-- Generator: Gravit.io --><svg xmlns="http://www.w3.org/2000/svg" xmlns:xlink="http://www.w3.org/1999/xlink" style="isolation:isolate" viewBox="0 0 300 300" width="300pt" height="300pt"><defs><clipPath id="_clipPath_0222HlFjV0XKLU5oS2rIOssJuQ82HFNn"><rect width="300" height="300"/></clipPath></defs><g clip-path="url(#_clipPath_0222HlFjV0XKLU5oS2rIOssJuQ82HFNn)"><rect width="300" height="300" style="fill:rgb(0,0,0)" fill-opacity="0"/><path d=" M 54.03 89.209 L 54.03 89.209 C 60.408 89.209 65.586 94.387 65.586 100.765 L 65.586 128.5 C 65.586 134.878 60.408 140.057 54.03 140.057 L 54.03 140.057 C 47.652 140.057 42.474 134.878 42.474 128.5 L 42.474 100.765 C 42.474 94.387 47.652 89.209 54.03 89.209 L 54.03 89.209 L 54.03 89.209 L 54.03 89.209 L 54.03 89.209 L 54.03 89.209 L 54.03 89.209 L 54.03 89.209 L 54.03 89.209 Z  M 110.655 89.209 L 110.655 89.209 C 117.033 89.209 122.212 94.387 122.212 100.765 L 122.212 128.5 C 122.212 134.878 117.033 140.057 110.655 140.057 L 110.655 140.057 C 104.277 140.057 99.099 134.878 99.099 128.5 L 99.099 100.765 C 99.099 94.387 104.277 89.209 110.655 89.209 L 110.655 89.209 L 110.655 89.209 L 110.655 89.209 L 110.655 89.209 L 110.655 89.209 L 110.655 89.209 L 110.655 89.209 Z  M 54.03 159.943 L 54.03 159.943 C 60.408 159.943 65.586 165.122 65.586 171.5 L 65.586 199.235 C 65.586 205.613 60.408 210.791 54.03 210.791 L 54.03 210.791 C 47.652 210.791 42.474 205.613 42.474 199.235 L 42.474 171.5 C 42.474 165.122 47.652 159.943 54.03 159.943 L 54.03 159.943 L 54.03 159.943 L 54.03 159.943 L 54.03 159.943 L 54.03 159.943 L 54.03 159.943 Z  M 110.655 159.943 L 110.655 159.943 C 117.033 159.943 122.212 165.122 122.212 171.5 L 122.212 199.235 C 122.212 205.613 117.033 210.791 110.655 210.791 L 110.655 210.791 C 104.277 210.791 99.099 205.613 99.099 199.235 L 99.099 171.5 C 99.099 165.122 104.277 159.943 110.655 159.943 L 110.655 159.943 L 110.655 159.943 L 110.655 159.943 L 110.655 159.943 L 110.655 159.943 Z  M 199.761 133.206 L 200.589 133.206 C 205.479 133.206 209.45 137.176 209.45 142.067 L 209.45 161.593 C 209.45 166.484 205.479 170.454 200.589 170.454 L 199.761 170.454 C 194.871 170.454 190.9 166.484 190.9 161.593 L 190.9 142.067 C 190.9 137.176 194.871 133.206 199.761 133.206 L 199.761 133.206 L 199.761 133.206 L 199.761 133.206 Z  M 245.207 133.206 L 246.034 133.206 C 250.925 133.206 254.895 137.176 254.895 142.067 L 254.895 161.593 C 254.895 166.484 250.925 170.454 246.034 170.454 L 245.207 170.454 C 240.316 170.454 236.346 166.484 236.346 161.593 L 236.346 142.067 C 236.346 137.176 240.316 133.206 245.207 133.206 L 245.207 133.206 L 245.207 133.206 Z  M 199.761 185.022 L 200.589 185.022 C 205.479 185.022 209.45 188.992 209.45 193.883 L 209.45 213.409 C 209.45 218.3 205.479 222.27 200.589 222.27 L 199.761 222.27 C 194.871 222.27 190.9 218.3 190.9 213.409 L 190.9 193.883 C 190.9 188.992 194.871 185.022 199.761 185.022 L 199.761 185.022 Z  M 164.685 126.475 L 164.685 241.981 L 279.566 241.981 L 279.566 134.631 C 279.566 129.03 277.4 123.649 273.538 119.684 C 269.676 115.719 264.434 113.495 258.979 113.495 L 183.679 113.495 L 183.679 113.495 C 178.223 113.495 172.982 115.719 169.12 119.684 C 167.206 121.648 165.709 123.96 164.685 126.475 L 164.685 126.475 L 164.685 126.475 L 164.685 126.475 L 164.685 126.475 Z  M 164.685 97.304 L 164.685 66.873 C 164.685 50.407 151.317 37.038 134.851 37.038 L 29.835 37.038 L 29.835 37.038 L 29.835 37.038 L 29.835 37.038 L 29.835 37.038 C 13.368 37.038 0 50.407 0 66.873 L 0 251.331 C 0 257.75 5.212 262.962 11.631 262.962 L 153.054 262.962 C 153.128 262.962 153.2 262.961 153.273 262.96 L 279.566 262.96 C 284.981 262.96 290.181 260.747 294.013 256.813 C 297.844 252.88 300 247.54 300 241.981 L 300 134.631 C 300 123.47 295.678 112.75 287.985 104.852 C 280.291 96.953 269.849 92.516 258.979 92.516 L 183.679 92.516 L 183.679 92.516 C 177.007 92.516 170.497 94.187 164.685 97.304 L 164.685 97.304 L 164.685 97.304 L 164.685 97.304 L 164.685 97.304 Z  M 245.207 185.022 L 246.034 185.022 C 250.925 185.022 254.895 188.992 254.895 193.883 L 254.895 213.409 C 254.895 218.3 250.925 222.27 246.034 222.27 L 245.207 222.27 C 240.316 222.27 236.346 218.3 236.346 213.409 L 236.346 193.883 C 236.346 188.992 240.316 185.022 245.207 185.022 Z " fill-rule="evenodd" fill="rgb(0,0,0)"/></g></svg>