<?xml version="1.0" encoding="UTF-8" standalone="no"?><!-- Generator: Gravit.io --><svg xmlns="http://www.w3.org/2000/svg" xmlns:xlink="http://www.w3.org/1999/xlink" style="isolation:isolate" viewBox="0 0 300 300" width="300pt" height="300pt"><defs><clipPath id="_clipPath_rs5U70pFlTMJGnmXtMoFOu2tXUsxF3ZH"><rect width="300" height="300"/></clipPath></defs><g clip-path="url(#_clipPath_rs5U70pFlTMJGnmXtMoFOu2tXUsxF3ZH)"><rect width="300" height="300" style="fill:rgb(0,0,0)" fill-opacity="0"/><path d=" M 176.281 220.456 L 176.281 273.719 C 176.281 288.224 164.505 300 150 300 L 150 300 C 135.495 300 123.719 288.224 123.719 273.719 L 123.719 220.456 L 63.37 220.456 C 44.285 220.456 37.519 207.653 48.269 191.884 L 89.395 131.557 L 95.633 122.407 L 84.571 122.407 C 65.242 122.407 58.739 109.687 70.058 94.018 L 99.775 52.885 L 129.491 11.751 C 140.81 -3.917 159.19 -3.917 170.509 11.751 L 200.225 52.885 L 229.942 94.018 C 241.261 109.687 234.758 122.407 215.429 122.407 L 204.367 122.407 L 210.605 131.557 L 251.731 191.884 C 262.481 207.653 255.715 220.456 236.63 220.456 L 176.281 220.456 Z " fill-rule="evenodd" fill="rgb(0,0,0)"/></g></svg>