<?xml version="1.0" encoding="UTF-8" standalone="no"?><!-- Generator: Gravit.io --><svg xmlns="http://www.w3.org/2000/svg" xmlns:xlink="http://www.w3.org/1999/xlink" style="isolation:isolate" viewBox="0 0 300 300" width="300pt" height="300pt"><defs><clipPath id="_clipPath_VzXYEbcm5Df7YEWoaCCSJtnusXgdTIRg"><rect width="300" height="300"/></clipPath></defs><g clip-path="url(#_clipPath_VzXYEbcm5Df7YEWoaCCSJtnusXgdTIRg)"><rect width="300" height="300" style="fill:rgb(0,0,0)" fill-opacity="0"/><path d=" M 215.085 254.365 L 161.344 254.365 L 161.344 254.365 L 161.344 147.802 C 167.185 144.383 171.111 138.042 171.111 130.791 C 171.111 119.919 162.285 111.093 151.414 111.093 C 140.542 111.093 131.716 119.919 131.716 130.791 L 131.716 130.791 L 131.716 130.791 L 131.716 130.791 C 131.716 138.039 135.64 144.378 141.477 147.798 L 141.477 254.365 L 87.736 254.365 L 87.736 147.802 L 87.736 147.802 C 93.577 144.383 97.504 138.042 97.504 130.791 C 97.504 119.919 88.678 111.093 77.806 111.093 C 66.935 111.093 58.109 119.919 58.109 130.791 L 58.109 130.791 L 58.109 130.791 L 58.109 130.791 C 58.109 138.039 62.032 144.378 67.869 147.798 L 67.869 254.365 L 27.724 254.365 C 17.315 254.365 8.865 245.914 8.865 235.505 L 8.865 102.165 C 8.865 91.756 16.053 78.862 24.906 73.389 L 135.372 5.101 C 144.226 -0.372 158.602 -0.372 167.455 5.101 L 167.455 5.101 L 167.455 5.101 L 167.455 5.101 L 277.921 73.389 C 286.775 78.862 293.963 91.756 293.963 102.165 L 293.963 235.505 C 293.963 245.914 285.512 254.365 275.103 254.365 L 234.952 254.365 L 234.952 147.802 C 240.792 144.382 244.718 138.041 244.718 130.791 C 244.718 119.919 235.892 111.093 225.021 111.093 C 214.149 111.093 205.323 119.919 205.323 130.791 L 205.323 130.791 L 205.323 130.791 L 205.323 130.791 C 205.323 138.039 209.247 144.379 215.085 147.799 L 215.085 254.365 Z  M 21 267.902 L 279 267.902 C 287.258 267.902 293.963 274.607 293.963 282.865 L 293.963 284.041 C 293.963 292.299 287.258 299.004 279 299.004 L 21 299.004 C 12.742 299.004 6.037 292.299 6.037 284.041 L 6.037 282.865 C 6.037 274.607 12.742 267.902 21 267.902 Z " fill-rule="evenodd" fill="rgb(0,0,0)" vector-effect="non-scaling-stroke" stroke-width="1" stroke="rgb(0,0,0)" stroke-linejoin="miter" stroke-linecap="square" stroke-miterlimit="3"/></g></svg>