<?xml version="1.0" encoding="UTF-8" standalone="no"?><!-- Generator: Gravit.io --><svg xmlns="http://www.w3.org/2000/svg" xmlns:xlink="http://www.w3.org/1999/xlink" style="isolation:isolate" viewBox="0 0 300 300" width="300pt" height="300pt"><defs><clipPath id="_clipPath_S1Ti0RpIW2WtSWG2rtTS3V0uy0egbgfB"><rect width="300" height="300"/></clipPath></defs><g clip-path="url(#_clipPath_S1Ti0RpIW2WtSWG2rtTS3V0uy0egbgfB)"><rect width="300" height="300" style="fill:rgb(0,0,0)" fill-opacity="0"/><path d="M 57.017 65.833 L 70.435 65.833 C 87.304 65.833 101 79.529 101 96.398 L 101 203.602 C 101 220.471 87.304 234.167 70.435 234.167 L 57.017 234.167 C 40.148 234.167 26.452 220.471 26.452 203.602 L 26.452 96.398 C 26.452 79.529 40.148 65.833 57.017 65.833 Z" style="stroke:none;fill:#000000;stroke-miterlimit:10;"/><path d="M 15.764 104.911 L 26.452 104.911 L 26.452 195.089 L 15.764 195.089 C 7.063 195.089 0 188.026 0 179.326 L 0 120.674 C 0 111.974 7.063 104.911 15.764 104.911 Z" style="stroke:none;fill:#000000;stroke-miterlimit:10;"/><path d="M 241.854 64.167 L 228.17 64.167 C 210.967 64.167 197 78.133 197 95.336 L 197 204.664 C 197 221.867 210.967 235.833 228.17 235.833 L 241.854 235.833 C 259.057 235.833 273.024 221.867 273.024 204.664 L 273.024 95.336 C 273.024 78.133 259.057 64.167 241.854 64.167 Z" style="stroke:none;fill:#000000;stroke-miterlimit:10;"/><path d="M 283.924 104.018 L 273.024 104.018 L 273.024 195.982 L 283.924 195.982 C 292.797 195.982 300 188.779 300 179.906 L 300 120.094 C 300 111.221 292.797 104.018 283.924 104.018 Z" style="stroke:none;fill:#000000;stroke-miterlimit:10;"/><rect x="50" y="129.125" width="190" height="41.75" transform="matrix(1,0,0,1,0,0)" fill="rgb(0,0,0)"/></g></svg>