<?xml version="1.0" encoding="UTF-8" standalone="no"?><!-- Generator: Gravit.io --><svg xmlns="http://www.w3.org/2000/svg" xmlns:xlink="http://www.w3.org/1999/xlink" style="isolation:isolate" viewBox="0 0 300 300" width="300pt" height="300pt"><defs><clipPath id="_clipPath_AvNSB8LFgJLyOXAL36mtndImqDCbhTIV"><rect width="300" height="300"/></clipPath></defs><g clip-path="url(#_clipPath_AvNSB8LFgJLyOXAL36mtndImqDCbhTIV)"><rect width="300" height="300" style="fill:rgb(0,0,0)" fill-opacity="0"/><path d=" M 36.226 28.889 L 137.035 60.822 C 140.039 61.774 142.478 65.105 142.478 68.256 L 142.478 272.472 C 142.478 275.623 140.039 277.409 137.035 276.457 L 36.226 244.524 C 16.232 238.191 0 216.021 0 195.049 L 0 55.414 C 0 34.441 16.232 22.556 36.226 28.889 Z " fill="rgb(0,0,0)"/><path d=" M 263.774 28.889 L 162.965 60.822 C 159.961 61.774 157.522 65.105 157.522 68.256 L 157.522 272.472 C 157.522 275.623 159.961 277.409 162.965 276.457 L 263.774 244.524 C 283.768 238.191 300 216.021 300 195.049 L 300 55.414 C 300 34.441 283.768 22.556 263.774 28.889 Z " fill="rgb(0,0,0)"/></g></svg>