<?xml version="1.0" encoding="UTF-8" standalone="no"?><!-- Generator: Gravit.io --><svg xmlns="http://www.w3.org/2000/svg" xmlns:xlink="http://www.w3.org/1999/xlink" style="isolation:isolate" viewBox="0 0 300 300" width="300pt" height="300pt"><defs><clipPath id="_clipPath_TELovCLIe97cMPXVYheFxlQTjRRGaO1V"><rect width="300" height="300"/></clipPath></defs><g clip-path="url(#_clipPath_TELovCLIe97cMPXVYheFxlQTjRRGaO1V)"><rect width="300" height="300" style="fill:rgb(0,0,0)" fill-opacity="0"/><path d="M 102.5 265 L 197.5 265 C 207.159 265 215 272.841 215 282.5 L 215 282.5 C 215 292.159 207.159 300 197.5 300 L 102.5 300 C 92.841 300 85 292.159 85 282.5 L 85 282.5 C 85 272.841 92.841 265 102.5 265 Z" style="stroke:none;fill:#000000;stroke-miterlimit:10;"/><path d="M 167.5 139.5 L 167.5 282.5 C 167.5 292.159 159.659 300 150 300 L 150 300 C 140.341 300 132.5 292.159 132.5 282.5 L 132.5 139.5 C 132.5 129.841 140.341 122 150 122 L 150 122 C 159.659 122 167.5 129.841 167.5 139.5 Z" style="stroke:none;fill:#000000;stroke-miterlimit:10;"/><path d=" M 47.43 10 L 150 10 L 252.57 10 C 272.262 10 278.339 22.545 266.132 37.998 L 219.125 97.5 L 172.118 157.002 C 159.911 172.455 140.089 172.455 127.882 157.002 L 80.875 97.5 L 33.868 37.998 C 21.661 22.545 27.738 10 47.43 10 Z " fill="none" vector-effect="non-scaling-stroke" stroke-width="20" stroke="rgb(0,0,0)" stroke-linejoin="miter" stroke-linecap="square" stroke-miterlimit="3"/><path d=" M 43.182 49.182 L 255 49.182 L 157 159 L 132.5 159 L 43.182 49.182 Z " fill="rgb(0,0,0)" vector-effect="non-scaling-stroke" stroke-width="1" stroke="rgb(0,0,0)" stroke-linejoin="miter" stroke-linecap="square" stroke-miterlimit="3"/></g></svg>