<?xml version="1.0" encoding="UTF-8" standalone="no"?><!-- Generator: Gravit.io --><svg xmlns="http://www.w3.org/2000/svg" xmlns:xlink="http://www.w3.org/1999/xlink" style="isolation:isolate" viewBox="0 0 300 300" width="300pt" height="300pt"><defs><clipPath id="_clipPath_hnaydtMZ52tDO8GfPhemzaHcccS0lCpH"><rect width="300" height="300"/></clipPath></defs><g clip-path="url(#_clipPath_hnaydtMZ52tDO8GfPhemzaHcccS0lCpH)"><rect width="300" height="300" style="fill:rgb(0,0,0)" fill-opacity="0"/><path d=" M 130.832 14.541 C 130.832 6.516 137.348 0 145.373 0 L 145.373 0 C 153.399 0 159.915 6.516 159.915 14.541 L 159.915 100.997 L 159.915 100.997 L 159.915 103.112 L 159.915 118.447 C 159.915 135.52 146.054 149.38 128.981 149.38 L 112.738 149.38 L 112.738 277.722 C 112.737 290.063 102.718 300.083 90.377 300.083 L 88.417 300.083 C 76.076 300.083 66.056 290.063 66.056 277.722 L 66.056 149.38 L 45.434 149.38 C 28.361 149.38 14.5 135.52 14.5 118.447 L 14.5 103.112 L 14.5 103.112 L 14.5 100.997 L 14.5 14.541 C 14.5 6.516 21.016 0 29.041 0 L 29.041 0 C 37.067 0 43.583 6.516 43.583 14.541 L 43.583 14.541 L 43.583 70.118 L 43.583 77.995 C 43.583 86.021 50.099 92.537 58.124 92.537 L 58.124 92.537 C 66.15 92.537 72.666 86.021 72.666 77.995 L 72.666 70.063 L 72.666 70.063 L 72.666 14.541 L 72.666 14.541 C 72.666 6.516 79.182 0 87.207 0 L 87.207 0 C 95.233 0 101.749 6.516 101.749 14.541 L 101.749 70.063 L 101.749 70.063 L 101.749 77.995 C 101.749 86.021 108.265 92.537 116.29 92.537 L 116.29 92.537 C 124.316 92.537 130.832 86.021 130.832 77.995 L 130.832 70.118 L 130.832 14.541 L 130.832 14.541 Z " fill-rule="evenodd" fill="rgb(0,0,0)"/><path d=" M 262.255 0.002 C 262.223 0 262.191 0 262.159 0 L 262.159 0 C 261.9 0 261.642 0.004 261.385 0.013 C 219.883 0.842 186.354 53.829 186.354 118.976 L 186.354 153.751 C 186.354 170.309 199.796 183.751 216.354 183.751 L 238.819 183.751 L 238.819 276.742 C 238.819 289.624 249.277 300.083 262.159 300.083 L 262.159 300.083 C 275.041 300.083 285.5 289.624 285.5 276.742 L 285.5 147.563 L 285.5 147.563 L 285.5 36.188 L 285.5 36.188 L 285.5 23.341 C 285.5 10.989 275.885 0.866 263.737 0.059 C 263.639 0.046 263.538 0.04 263.439 0.028 C 263.213 0.022 262.987 0.013 262.761 0.01 C 262.593 0.003 262.424 0.001 262.255 0.002 Z " fill-rule="evenodd" fill="rgb(0,0,0)"/></g></svg>