<?xml version="1.0" encoding="UTF-8" standalone="no"?><!-- Generator: Gravit.io --><svg xmlns="http://www.w3.org/2000/svg" xmlns:xlink="http://www.w3.org/1999/xlink" style="isolation:isolate" viewBox="0 0 300 300" width="300pt" height="300pt"><defs><clipPath id="_clipPath_LzHmdFBmmOkTlsYzCrNblDsjwZtdCAfZ"><rect width="300" height="300"/></clipPath></defs><g clip-path="url(#_clipPath_LzHmdFBmmOkTlsYzCrNblDsjwZtdCAfZ)"><rect width="300" height="300" style="fill:rgb(0,0,0)" fill-opacity="0"/><path d=" M 296.755 116.78 C 297.235 116.415 297.692 116.016 298.125 115.583 L 298.125 115.583 L 298.125 115.583 C 297.455 114.89 296.715 114.277 295.935 113.757 C 294.455 112.74 292.895 111.862 291.285 111.134 C 291.265 111.134 291.245 111.122 291.225 111.111 L 179.685 59.73 C 177.635 58.794 175.525 57.997 173.385 57.361 C 170.965 56.622 168.515 56.032 166.045 55.581 C 160.635 54.588 155.165 54.102 149.685 54.114 C 144.205 54.102 138.735 54.588 133.325 55.581 C 130.855 56.032 128.405 56.622 125.985 57.361 C 123.845 57.997 121.735 58.794 119.675 59.73 L 8.145 111.111 C 8.125 111.122 8.105 111.134 8.085 111.134 C 6.475 111.862 4.915 112.74 3.435 113.757 C 2.655 114.277 1.915 114.89 1.245 115.583 C 1.915 116.254 2.645 116.843 3.425 117.351 C 4.935 118.345 6.515 119.189 8.145 119.894 C 8.175 119.905 8.195 119.905 8.215 119.917 L 119.285 168.489 C 121.375 169.391 123.515 170.153 125.685 170.766 C 128.135 171.471 130.615 172.049 133.125 172.476 C 138.605 173.435 144.145 173.909 149.685 173.886 C 155.225 173.909 160.765 173.435 166.245 172.476 C 168.745 172.049 171.235 171.471 173.685 170.766 C 175.855 170.153 177.995 169.391 180.085 168.489 L 274.755 127.089 L 274.755 203.62 C 274.755 206.53 275.915 209.33 277.975 211.4 C 280.035 213.46 282.835 214.62 285.755 214.62 C 288.675 214.62 291.475 213.46 293.535 211.4 C 295.595 209.33 296.755 206.53 296.755 203.62 L 296.755 116.78 Z  M 252.115 161.701 L 252.115 212.681 C 252.115 222.837 248.435 232.598 241.885 239.779 C 235.345 246.959 226.465 251 217.205 251 L 82.155 251 C 72.905 251 64.025 246.959 57.485 239.779 C 50.935 232.598 47.255 222.837 47.255 212.681 L 47.255 161.701 L 47.255 161.701 L 112.225 190.112 C 112.235 190.112 112.245 190.123 112.255 190.123 C 115.075 191.348 117.965 192.377 120.885 193.209 C 123.945 194.087 127.025 194.792 130.135 195.335 C 136.605 196.468 143.145 197.022 149.685 196.999 C 156.225 197.022 162.765 196.468 169.235 195.335 C 172.345 194.792 175.425 194.087 178.485 193.209 C 181.405 192.377 184.285 191.348 187.115 190.123 C 187.125 190.123 187.135 190.112 187.145 190.112 L 252.115 161.701 L 252.115 161.701 Z " fill-rule="evenodd" fill="rgb(0,0,0)"/></g></svg>