<?xml version="1.0" encoding="UTF-8" standalone="no"?><!-- Generator: Gravit.io --><svg xmlns="http://www.w3.org/2000/svg" xmlns:xlink="http://www.w3.org/1999/xlink" style="isolation:isolate" viewBox="0 0 300 300" width="300pt" height="300pt"><defs><clipPath id="_clipPath_rD1IecyDVTCBBUAz1NxIiodb1cs5J7KA"><rect width="300" height="300"/></clipPath></defs><g clip-path="url(#_clipPath_rD1IecyDVTCBBUAz1NxIiodb1cs5J7KA)"><rect width="300" height="300" style="fill:rgb(0,0,0)" fill-opacity="0"/><path d=" M 223.968 71.122 C 244.754 71.379 263.89 88.139 266.803 108.745 L 288.52 262.374 C 291.456 283.14 276.812 300 255.839 300 L 44.24 300 L 44.24 300 C 23.267 300 8.537 283.128 11.366 262.347 L 32.271 108.772 C 35.1 87.991 54.424 71.119 75.397 71.119 L 81.606 71.119 C 81.606 52.246 89.108 34.127 102.457 20.79 C 115.795 7.44 133.913 -0.061 152.787 -0.061 C 171.661 -0.061 189.779 7.44 203.117 20.79 C 216.466 34.127 223.968 52.246 223.968 71.119 L 223.968 71.122 Z  M 200.001 71.119 L 105.573 71.119 C 105.573 58.597 110.558 46.59 119.401 37.734 C 128.257 28.89 140.264 23.905 152.787 23.905 C 165.309 23.905 177.317 28.89 186.172 37.734 C 195.016 46.59 200.001 58.597 200.001 71.119 Z  M 200.001 108.681 C 200.001 105.505 201.259 102.45 203.512 100.209 C 205.753 97.956 208.809 96.698 211.984 96.698 C 215.16 96.698 218.204 97.956 220.456 100.209 C 222.697 102.45 223.968 105.505 223.968 108.681 C 223.968 127.555 216.466 145.673 203.117 159.011 C 189.779 172.36 171.661 179.862 152.787 179.862 C 133.913 179.862 115.795 172.36 102.457 159.011 C 89.108 145.673 81.606 127.555 81.606 108.681 C 81.606 105.505 82.876 102.45 85.117 100.209 C 87.37 97.956 90.414 96.698 93.59 96.698 C 96.765 96.698 99.821 97.956 102.062 100.209 C 104.315 102.45 105.573 105.505 105.573 108.681 C 105.573 121.203 110.558 133.211 119.401 142.066 C 128.257 150.91 140.264 155.895 152.787 155.895 C 165.309 155.895 177.317 150.91 186.172 142.066 C 195.016 133.211 200.001 121.203 200.001 108.681 L 200.001 108.681 Z " fill-rule="evenodd" fill="rgb(0,0,0)"/></g></svg>