<?xml version="1.0" encoding="UTF-8" standalone="no"?><!-- Generator: Gravit.io --><svg xmlns="http://www.w3.org/2000/svg" xmlns:xlink="http://www.w3.org/1999/xlink" style="isolation:isolate" viewBox="0 0 300 300" width="300pt" height="300pt"><defs><clipPath id="_clipPath_gIjLm8wcgfZp2tsZm8h4FuhfPOl8aiUq"><rect width="300" height="300"/></clipPath></defs><g clip-path="url(#_clipPath_gIjLm8wcgfZp2tsZm8h4FuhfPOl8aiUq)"><rect width="300" height="300" style="fill:rgb(0,0,0)" fill-opacity="0"/><path d=" M 46.754 98.646 L 46.754 98.646 C 52.273 98.646 56.754 103.126 56.754 108.646 L 56.754 132.646 C 56.754 138.165 52.273 142.646 46.754 142.646 L 46.754 142.646 C 41.235 142.646 36.754 138.165 36.754 132.646 L 36.754 108.646 C 36.754 103.126 41.235 98.646 46.754 98.646 L 46.754 98.646 L 46.754 98.646 L 46.754 98.646 L 46.754 98.646 Z  M 95.754 98.646 L 95.754 98.646 C 101.273 98.646 105.754 103.126 105.754 108.646 L 105.754 132.646 C 105.754 138.165 101.273 142.646 95.754 142.646 L 95.754 142.646 C 90.235 142.646 85.754 138.165 85.754 132.646 L 85.754 108.646 C 85.754 103.126 90.235 98.646 95.754 98.646 L 95.754 98.646 L 95.754 98.646 L 95.754 98.646 Z  M 46.754 159.854 L 46.754 159.854 C 52.273 159.854 56.754 164.335 56.754 169.854 L 56.754 193.854 C 56.754 199.374 52.273 203.854 46.754 203.854 L 46.754 203.854 C 41.235 203.854 36.754 199.374 36.754 193.854 L 36.754 169.854 C 36.754 164.335 41.235 159.854 46.754 159.854 L 46.754 159.854 L 46.754 159.854 Z  M 95.754 159.854 L 95.754 159.854 C 101.273 159.854 105.754 164.335 105.754 169.854 L 105.754 193.854 C 105.754 199.374 101.273 203.854 95.754 203.854 L 95.754 203.854 C 90.235 203.854 85.754 199.374 85.754 193.854 L 85.754 169.854 C 85.754 164.335 90.235 159.854 95.754 159.854 L 95.754 159.854 Z  M 25.817 52.25 L 116.691 52.25 C 130.94 52.25 142.508 63.818 142.508 78.067 L 142.508 237.685 C 142.508 243.24 137.998 247.75 132.443 247.75 L 10.065 247.75 C 4.51 247.75 0 243.24 0 237.685 L 0 78.067 C 0 63.818 11.568 52.25 25.817 52.25 L 25.817 52.25 L 25.817 52.25 L 25.817 52.25 L 25.817 52.25 Z  M 155.115 168.279 C 155.115 168.273 155.115 168.263 155.115 168.258 C 155.115 168.263 155.115 168.273 155.115 168.279 L 155.115 168.279 L 155.115 229.959 L 155.115 229.959 C 155.115 234.679 156.988 239.205 160.326 242.544 C 163.659 245.877 168.191 247.75 172.905 247.75 L 172.905 247.75 L 204.566 247.75 L 204.566 215.282 L 204.566 215.282 L 204.566 215.277 C 204.566 212.206 205.178 209.165 206.376 206.34 C 207.533 203.609 209.207 201.123 211.305 199.03 C 213.403 196.927 215.884 195.252 218.615 194.096 C 221.446 192.903 224.486 192.285 227.557 192.291 C 230.629 192.285 233.669 192.903 236.5 194.096 C 239.231 195.252 241.711 196.927 243.81 199.03 C 245.908 201.123 247.582 203.609 248.739 206.34 C 249.937 209.165 250.549 212.206 250.549 215.277 C 250.549 215.277 250.549 215.277 250.549 215.282 L 250.549 247.75 L 282.209 247.75 L 282.209 247.75 C 286.924 247.75 291.455 245.877 294.788 242.544 C 298.127 239.205 300 234.679 300 229.959 L 300 229.959 L 300 168.797 L 300 168.797 L 300 168.776 C 299.995 167.625 299.906 166.473 299.733 165.333 C 299.56 164.187 299.315 163.046 299.006 161.926 C 298.373 159.666 297.509 157.473 296.431 155.38 C 295.364 153.287 294.082 151.31 292.612 149.478 C 291.884 148.573 291.105 147.71 290.273 146.899 C 289.446 146.098 288.562 145.35 287.625 144.675 C 287.625 144.675 287.62 144.669 287.615 144.664 L 240.555 105.263 C 240.539 105.253 240.529 105.248 240.518 105.237 C 238.582 103.877 236.432 102.851 234.156 102.208 C 231.921 101.564 229.608 101.245 227.28 101.25 C 224.962 101.245 222.654 101.564 220.425 102.202 C 218.155 102.841 216.004 103.861 214.073 105.222 C 214.063 105.227 214.052 105.237 214.042 105.248 L 167.516 144.157 C 167.511 144.162 167.505 144.167 167.5 144.167 C 166.569 144.842 165.684 145.585 164.858 146.391 C 164.02 147.197 163.241 148.06 162.513 148.96 C 161.038 150.797 159.756 152.775 158.689 154.868 C 157.605 156.955 156.742 159.148 156.109 161.408 C 155.8 162.528 155.554 163.663 155.382 164.815 C 155.209 165.955 155.12 167.106 155.115 168.258 L 155.115 168.279 Z " fill-rule="evenodd" fill="rgb(0,0,0)"/></g></svg>