<?xml version="1.0" encoding="UTF-8" standalone="no"?><!-- Generator: Gravit.io --><svg xmlns="http://www.w3.org/2000/svg" xmlns:xlink="http://www.w3.org/1999/xlink" style="isolation:isolate" viewBox="0 0 300 300" width="300pt" height="300pt"><defs><clipPath id="_clipPath_5GlZ8xaThFYrYJYeHxCQ0NeyiErqADDh"><rect width="300" height="300"/></clipPath></defs><g clip-path="url(#_clipPath_5GlZ8xaThFYrYJYeHxCQ0NeyiErqADDh)"><rect width="300" height="300" style="fill:rgb(0,0,0)" fill-opacity="0"/><circle vector-effect="non-scaling-stroke" cx="150.70524545488277" cy="168.32901633910737" r="42.62223640760683" fill="rgb(0,0,0)"/><path d=" M 8.68 84.81 C 15.073 76.506 25.113 71.156 36.393 71.156 L 71.877 71.156 L 71.877 71.156 L 71.877 71.156 C 71.874 70.963 71.872 70.769 71.872 70.574 L 71.872 70.574 C 71.872 69.594 71.913 68.624 71.994 67.665 L 72.199 67.665 C 72.199 67.665 72.211 67.665 72.211 67.665 C 73.863 67.665 75.492 67.933 77.052 68.48 C 78.413 68.957 79.693 69.678 80.799 70.598 C 81.742 71.366 82.51 72.32 83.057 73.391 C 83.534 74.322 83.79 75.346 83.79 76.393 C 83.79 77.44 83.534 78.464 83.057 79.395 C 82.51 80.466 81.742 81.42 80.799 82.188 C 79.693 83.108 78.413 83.829 77.052 84.306 C 75.492 84.853 73.863 85.121 72.211 85.121 C 72.211 85.121 72.199 85.121 72.199 85.121 L 50.623 85.121 L 50.623 106.697 C 50.623 106.697 50.623 106.709 50.623 106.709 C 50.623 108.361 50.355 109.99 49.808 111.55 C 49.331 112.911 48.61 114.191 47.69 115.297 C 46.922 116.24 45.968 117.008 44.897 117.555 C 43.966 118.032 42.942 118.288 41.895 118.288 C 40.848 118.288 39.823 118.032 38.892 117.555 C 37.822 117.008 36.868 116.24 36.099 115.297 C 35.18 114.191 34.459 112.911 33.981 111.55 C 33.434 109.99 33.167 108.361 33.167 106.709 C 33.167 106.709 33.167 106.697 33.167 106.697 L 33.167 85.121 L 11.591 85.121 C 11.591 85.121 11.579 85.121 11.579 85.121 C 10.6 85.121 9.629 85.027 8.68 84.81 Z  M 3.13 95.37 C 2.005 98.755 1.41 102.378 1.41 106.138 L 1.41 230.52 C 1.41 249.827 17.086 265.502 36.393 265.502 L 265.018 265.502 C 284.325 265.502 300 249.827 300 230.52 L 300 106.138 C 300 86.831 284.325 71.156 265.018 71.156 L 229.533 71.156 C 229.537 70.963 229.538 70.769 229.538 70.574 L 229.538 70.574 C 229.538 51.627 214.155 36.244 195.208 36.244 L 106.203 36.244 C 92.395 36.244 80.48 44.413 75.039 56.182 C 77.034 56.387 78.998 56.831 80.892 57.494 C 83.557 58.425 86.036 59.821 88.212 61.625 C 90.365 63.394 92.134 65.593 93.414 68.072 C 94.729 70.656 95.427 73.507 95.427 76.393 C 95.427 79.279 94.729 82.13 93.414 84.714 C 92.134 87.193 90.365 89.392 88.212 91.161 C 86.036 92.965 83.557 94.361 80.892 95.292 C 78.099 96.27 75.155 96.77 72.187 96.759 L 62.26 96.759 L 62.26 106.685 C 62.272 109.653 61.772 112.597 60.794 115.39 C 59.863 118.055 58.467 120.534 56.663 122.71 C 54.894 124.863 52.694 126.632 50.216 127.912 C 47.632 129.227 44.781 129.925 41.895 129.925 C 39.009 129.925 36.158 129.227 33.574 127.912 C 31.095 126.632 28.896 124.863 27.127 122.71 C 25.323 120.534 23.927 118.055 22.996 115.39 C 22.018 112.597 21.518 109.653 21.529 106.685 L 21.529 96.759 L 11.603 96.759 C 8.717 96.77 5.853 96.297 3.13 95.37 Z  M 96.009 168.329 C 96.009 138.141 120.518 113.633 150.705 113.633 C 180.893 113.633 205.401 138.141 205.401 168.329 C 205.401 198.517 180.893 223.025 150.705 223.025 C 120.518 223.025 96.009 198.517 96.009 168.329 L 96.009 168.329 L 96.009 168.329 Z  M 240.314 111.305 C 240.314 104.561 245.789 99.086 252.533 99.086 C 259.277 99.086 264.752 104.561 264.752 111.305 C 264.752 118.049 259.277 123.525 252.533 123.525 C 245.789 123.525 240.314 118.049 240.314 111.305 L 240.314 111.305 Z  M 0 76.393 L 0 76.381 C 0 76.381 0 76.393 0 76.393 L 0 76.393 Z " fill-rule="evenodd" fill="rgb(0,0,0)"/><path d=" M 0 76.393 M 0 76.393 L 0 76.381 C 0 76.381 0 76.393 0 76.393 Z  M 0 76.393 C 0 77.44 0.256 78.464 0.733 79.395 C 1.28 80.466 2.048 81.42 2.991 82.188 C 4.096 83.108 5.377 83.829 6.738 84.306 C 8.298 84.853 9.927 85.121 11.579 85.121 C 11.579 85.121 11.591 85.121 11.591 85.121 L 33.167 85.121 L 33.167 106.697 C 33.167 106.697 33.167 106.709 33.167 106.709 C 33.167 108.361 33.434 109.99 33.981 111.55 C 34.459 112.911 35.18 114.191 36.099 115.297 C 36.868 116.24 37.822 117.008 38.892 117.555 C 39.823 118.032 40.848 118.288 41.895 118.288 C 42.942 118.288 43.966 118.032 44.897 117.555 C 45.968 117.008 46.922 116.24 47.69 115.297 C 48.61 114.191 49.331 112.911 49.808 111.55 C 50.355 109.99 50.623 108.361 50.623 106.709 C 50.623 106.709 50.623 106.697 50.623 106.697 L 50.623 85.121 L 72.199 85.121 C 72.199 85.121 72.211 85.121 72.211 85.121 C 73.863 85.121 75.492 84.853 77.052 84.306 C 78.413 83.829 79.693 83.108 80.799 82.188 C 81.742 81.42 82.51 80.466 83.057 79.395 C 83.534 78.464 83.79 77.44 83.79 76.393 C 83.79 75.346 83.534 74.322 83.057 73.391 C 82.51 72.32 81.742 71.366 80.799 70.598 C 79.693 69.678 78.413 68.957 77.052 68.48 C 75.492 67.933 73.863 67.665 72.211 67.665 C 72.211 67.665 72.199 67.665 72.199 67.665 L 50.623 67.665 L 50.623 46.089 C 50.623 46.089 50.623 46.077 50.623 46.077 C 50.623 44.425 50.355 42.796 49.808 41.236 C 49.331 39.875 48.61 38.594 47.69 37.489 C 46.922 36.546 45.968 35.778 44.897 35.231 C 43.966 34.754 42.942 34.498 41.895 34.498 C 40.848 34.498 39.823 34.754 38.892 35.231 C 37.822 35.778 36.868 36.546 36.099 37.489 C 35.18 38.594 34.459 39.875 33.981 41.236 C 33.434 42.796 33.167 44.425 33.167 46.077 C 33.167 46.077 33.167 46.089 33.167 46.089 L 33.167 46.089 L 33.167 67.665 L 11.591 67.665 C 11.591 67.665 11.579 67.665 11.579 67.665 C 9.927 67.665 8.298 67.933 6.738 68.48 C 5.377 68.957 4.096 69.678 2.991 70.598 C 2.048 71.366 1.28 72.32 0.733 73.391 C 0.256 74.322 0 75.346 0 76.393 Z " fill-rule="evenodd" fill="rgb(0,0,0)"/></g></svg>