<?xml version="1.0" encoding="UTF-8" standalone="no"?><!-- Generator: Gravit.io --><svg xmlns="http://www.w3.org/2000/svg" xmlns:xlink="http://www.w3.org/1999/xlink" style="isolation:isolate" viewBox="0 0 300 300" width="300pt" height="300pt"><defs><clipPath id="_clipPath_ZZecLWCwAjdAo2qOditTx801exk3hFST"><rect width="300" height="300"/></clipPath></defs><g clip-path="url(#_clipPath_ZZecLWCwAjdAo2qOditTx801exk3hFST)"><rect width="300" height="300" style="fill:rgb(0,0,0)" fill-opacity="0"/><path d=" M 24.84 118.577 C 10.404 123.409 0 137.051 0 153.105 L 0 201.688 C 0 220.478 14.254 235.966 32.53 237.918 L 32.53 262.048 C 32.53 275.68 43.597 286.747 57.229 286.747 L 57.229 286.747 C 70.861 286.747 81.928 275.68 81.928 262.048 L 81.928 238.125 L 81.928 238.125 L 218.072 238.125 L 218.072 238.125 L 218.072 262.048 C 218.072 275.68 229.139 286.747 242.771 286.747 L 242.771 286.747 C 256.403 286.747 267.47 275.68 267.47 262.048 L 267.47 237.918 C 285.746 235.966 300 220.478 300 201.688 L 300 153.105 C 300 137.051 289.596 123.409 275.16 118.577 C 274.971 116.818 274.646 115.075 274.193 113.361 L 256.337 45.542 C 253.904 36.289 248.47 28.096 240.904 22.265 C 233.325 16.422 224.024 13.253 214.458 13.253 L 85.542 13.253 L 85.542 13.253 C 75.976 13.253 66.675 16.422 59.096 22.265 C 51.53 28.096 46.096 36.289 43.663 45.542 L 25.807 113.361 C 25.354 115.075 25.029 116.818 24.84 118.577 Z  M 49.859 116.667 L 250.141 116.667 L 233.036 51.675 C 231.952 47.566 229.542 43.94 226.181 41.349 C 222.831 38.759 218.699 37.349 214.458 37.349 L 85.542 37.349 L 85.542 37.349 C 81.301 37.349 77.169 38.759 73.819 41.349 C 70.458 43.94 68.048 47.566 66.964 51.675 L 49.859 116.667 Z  M 48.735 177.396 C 48.735 164.912 58.871 154.776 71.355 154.776 C 83.84 154.776 93.976 164.912 93.976 177.396 C 93.976 189.881 83.84 200.017 71.355 200.017 C 58.871 200.017 48.735 189.881 48.735 177.396 L 48.735 177.396 L 48.735 177.396 L 48.735 177.396 L 48.735 177.396 Z  M 206.024 177.396 C 206.024 164.912 216.16 154.776 228.645 154.776 C 241.129 154.776 251.265 164.912 251.265 177.396 C 251.265 189.881 241.129 200.017 228.645 200.017 C 216.16 200.017 206.024 189.881 206.024 177.396 L 206.024 177.396 L 206.024 177.396 L 206.024 177.396 Z " fill-rule="evenodd" fill="rgb(0,0,0)"/></g></svg>