<?xml version="1.0" encoding="UTF-8" standalone="no"?><!-- Generator: Gravit.io --><svg xmlns="http://www.w3.org/2000/svg" xmlns:xlink="http://www.w3.org/1999/xlink" style="isolation:isolate" viewBox="0 0 300 300" width="300pt" height="300pt"><defs><clipPath id="_clipPath_RHb92aeCCMNQ0mshakVBFe5S1Uxfj6aM"><rect width="300" height="300"/></clipPath></defs><g clip-path="url(#_clipPath_RHb92aeCCMNQ0mshakVBFe5S1Uxfj6aM)"><rect width="300" height="300" style="fill:rgb(0,0,0)" fill-opacity="0"/><path d=" M 214.609 158.063 C 239.65 167.913 257.3 191.531 257.3 219.07 L 257.3 219.07 C 257.3 255.458 226.485 285 188.53 285 L 150.163 285 L 150.163 285 L 111.796 285 C 73.841 285 43.026 255.458 43.026 219.07 L 43.026 219.07 C 43.026 191.531 60.676 167.913 85.717 158.063 C 92.102 128.346 118.549 106.047 150.163 106.047 L 150.163 106.047 C 181.777 106.047 208.223 128.346 214.609 158.063 L 214.609 158.063 L 214.609 158.063 L 214.609 158.063 Z  M 106.806 15 L 106.806 15 C 124.944 15 139.669 29.726 139.669 47.863 L 139.669 62.469 C 139.669 80.607 124.944 95.333 106.806 95.333 L 106.806 95.333 C 88.668 95.333 73.942 80.607 73.942 62.469 L 73.942 47.863 C 73.942 29.726 88.668 15 106.806 15 L 106.806 15 L 106.806 15 L 106.806 15 Z  M 32.863 75.947 L 32.863 75.947 C 51.001 75.947 65.727 90.672 65.727 108.81 L 65.727 123.416 C 65.727 141.554 51.001 156.279 32.863 156.279 L 32.863 156.279 C 14.726 156.279 0 141.554 0 123.416 L 0 108.81 C 0 90.672 14.726 75.947 32.863 75.947 L 32.863 75.947 L 32.863 75.947 Z  M 193.52 15 L 193.52 15 C 175.382 15 160.657 29.726 160.657 47.863 L 160.657 62.469 C 160.657 80.607 175.382 95.333 193.52 95.333 L 193.52 95.333 C 211.658 95.333 226.383 80.607 226.383 62.469 L 226.383 47.863 C 226.383 29.726 211.658 15 193.52 15 L 193.52 15 Z  M 267.463 75.947 L 267.463 75.947 C 249.325 75.947 234.599 90.672 234.599 108.81 L 234.599 123.416 C 234.599 141.554 249.325 156.279 267.463 156.279 L 267.463 156.279 C 285.6 156.279 300.326 141.554 300.326 123.416 L 300.326 108.81 C 300.326 90.672 285.6 75.947 267.463 75.947 Z " fill-rule="evenodd" fill="rgb(0,0,0)"/></g></svg>